<svg class="animated" id="freepik_stories-people-visiting-history-museum" xmlns="http://www.w3.org/2000/svg" viewBox="0 0 500 500" version="1.1" xmlns:xlink="http://www.w3.org/1999/xlink" xmlns:svgjs="http://svgjs.com/svgjs"><style>svg#freepik_stories-people-visiting-history-museum:not(.animated) .animable {opacity: 0;}svg#freepik_stories-people-visiting-history-museum.animated #freepik--Fossil--inject-54 {animation: 3s Infinite  linear floating;animation-delay: 0s;}            @keyframes floating {                0% {                    opacity: 1;                    transform: translateY(0px);                }                50% {                    transform: translateY(-10px);                }                100% {                    opacity: 1;                    transform: translateY(0px);                }            }        </style><g id="freepik--background-simple--inject-54" class="animable" style="transform-origin: 254.976px 230.725px;"><path d="M337,34.58s-77.4-27.52-153.37,16.3S69.3,181.67,36.38,251.34s-14,140.55,44,172.86,97.43-15.32,178.79-17.64S362.44,415.87,430,369.91s79.71-154.51,26.46-234.82S337,34.58,337,34.58Z" style="fill: rgb(108, 152, 255); transform-origin: 254.976px 230.725px;" id="elp6apezv0ca" class="animable"></path><g id="elhb8xpjknn56"><path d="M337,34.58s-77.4-27.52-153.37,16.3S69.3,181.67,36.38,251.34s-14,140.55,44,172.86,97.43-15.32,178.79-17.64S362.44,415.87,430,369.91s79.71-154.51,26.46-234.82S337,34.58,337,34.58Z" style="fill: rgb(255, 255, 255); opacity: 0.7; transform-origin: 254.976px 230.725px;" class="animable"></path></g></g><g id="freepik--Wall--inject-54" class="animable" style="transform-origin: 253.19px 256.555px;"><line x1="279.64" y1="486.43" x2="279.64" y2="26.68" style="fill: none; stroke: rgb(38, 50, 56); stroke-linecap: round; stroke-linejoin: round; transform-origin: 279.64px 256.555px;" id="eloxer9inaade" class="animable"></line><line x1="332.54" y1="486.43" x2="332.54" y2="26.68" style="fill: none; stroke: rgb(38, 50, 56); stroke-linecap: round; stroke-linejoin: round; transform-origin: 332.54px 256.555px;" id="elds0ul3af52m" class="animable"></line><line x1="388.33" y1="486.43" x2="388.33" y2="68.04" style="fill: none; stroke: rgb(38, 50, 56); stroke-linecap: round; stroke-linejoin: round; transform-origin: 388.33px 277.235px;" id="elwr20wjm8j5r" class="animable"></line><line x1="441.23" y1="486.43" x2="441.23" y2="68.04" style="fill: none; stroke: rgb(38, 50, 56); stroke-linecap: round; stroke-linejoin: round; transform-origin: 441.23px 277.235px;" id="elq25hd0lb72" class="animable"></line><line x1="161.33" y1="486.43" x2="161.33" y2="68.04" style="fill: none; stroke: rgb(38, 50, 56); stroke-linecap: round; stroke-linejoin: round; transform-origin: 161.33px 277.235px;" id="elyyfiezi0iif" class="animable"></line><line x1="214.23" y1="486.43" x2="214.23" y2="34" style="fill: none; stroke: rgb(38, 50, 56); stroke-linecap: round; stroke-linejoin: round; transform-origin: 214.23px 260.215px;" id="el3lo87rlfob8" class="animable"></line><line x1="29.57" y1="330.62" x2="476.81" y2="330.62" style="fill: none; stroke: rgb(38, 50, 56); stroke-linecap: round; stroke-linejoin: round; transform-origin: 253.19px 330.62px;" id="eljr1ats3ggff" class="animable"></line><line x1="29.57" y1="336.39" x2="476.81" y2="336.39" style="fill: none; stroke: rgb(38, 50, 56); stroke-linecap: round; stroke-linejoin: round; transform-origin: 253.19px 336.39px;" id="elucu9hkcmyva" class="animable"></line></g><g id="freepik--Fossil--inject-54" class="animable" style="transform-origin: 258.485px 253.301px;"><path d="M449.19,135.39s-1-1.12-1.47-1.17-1.9-.25-1.9-.25l-2.35-3.51a.59.59,0,0,0-.43,1c.55.86,1.74,3.29,1.74,3.29a3,3,0,0,0-.57,1,5,5,0,0,0,.41,1.65A18.27,18.27,0,0,1,449.19,135.39Z" style="fill: rgb(255, 255, 255); stroke: rgb(38, 50, 56); stroke-linecap: round; stroke-linejoin: round; transform-origin: 446.032px 133.93px;" id="elfvr1ku7q6ri" class="animable"></path><path d="M441.05,139.88s-1-1.12-1.48-1.16l-1.89-.26L435.33,135a.59.59,0,0,0-.43,1c.55.85,1.74,3.28,1.74,3.28a3,3,0,0,0-.57,1,4.93,4.93,0,0,0,.41,1.65A18.27,18.27,0,0,1,441.05,139.88Z" style="fill: rgb(255, 255, 255); stroke: rgb(38, 50, 56); stroke-linecap: round; stroke-linejoin: round; transform-origin: 437.892px 138.465px;" id="elxxf7ut41mve" class="animable"></path><path d="M433.26,144.61s-1-1.12-1.47-1.17-1.9-.25-1.9-.25l-2.35-3.51a.59.59,0,0,0-.43,1c.55.86,1.74,3.28,1.74,3.28a3.05,3.05,0,0,0-.57,1,5.22,5.22,0,0,0,.42,1.65A18.06,18.06,0,0,1,433.26,144.61Z" style="fill: rgb(255, 255, 255); stroke: rgb(38, 50, 56); stroke-linecap: round; stroke-linejoin: round; transform-origin: 430.102px 143.145px;" id="eli55lxq9w5u" class="animable"></path><path d="M426,150.75s-1.27-1.11-1.82-1.14-2.37-.2-2.37-.2l-2.83-3.53s-1.24.17-.58,1,2.09,3.32,2.09,3.32a3.3,3.3,0,0,0-.76,1.05,4.32,4.32,0,0,0,.47,1.69A26.57,26.57,0,0,1,426,150.75Z" style="fill: rgb(255, 255, 255); stroke: rgb(38, 50, 56); stroke-linecap: round; stroke-linejoin: round; transform-origin: 422.103px 149.41px;" id="elwq7a4q24wmg" class="animable"></path><path d="M416.69,157.21s-1.27-1.12-1.81-1.15-2.37-.2-2.37-.2l-2.84-3.52s-1.23.17-.57,1,2.08,3.31,2.08,3.31a3.25,3.25,0,0,0-.75,1.06,4.34,4.34,0,0,0,.46,1.69A26.57,26.57,0,0,1,416.69,157.21Z" style="fill: rgb(255, 255, 255); stroke: rgb(38, 50, 56); stroke-linecap: round; stroke-linejoin: round; transform-origin: 412.798px 155.87px;" id="ellyxab46u7z9" class="animable"></path><path d="M406.86,163.11S405.6,162,405.05,162s-2.37-.2-2.37-.2l-2.83-3.53s-1.24.17-.58,1,2.08,3.31,2.08,3.31a3.41,3.41,0,0,0-.75,1.06c-.12.44.47,1.68.47,1.68A27,27,0,0,1,406.86,163.11Z" style="fill: rgb(255, 255, 255); stroke: rgb(38, 50, 56); stroke-linecap: round; stroke-linejoin: round; transform-origin: 402.968px 161.795px;" id="el44dirmnkbl6" class="animable"></path><path d="M397.88,167.6s-1.27-1.12-1.81-1.15-2.37-.2-2.37-.2l-2.84-3.52s-1.23.17-.57,1,2.08,3.31,2.08,3.31a3.39,3.39,0,0,0-.76,1.06,4.5,4.5,0,0,0,.47,1.69A26.57,26.57,0,0,1,397.88,167.6Z" style="fill: rgb(255, 255, 255); stroke: rgb(38, 50, 56); stroke-linecap: round; stroke-linejoin: round; transform-origin: 393.988px 166.26px;" id="elhjvhml2hvzd" class="animable"></path><path d="M387.76,173.61s-1.08-1.75-1.67-1.88-2.54-.65-2.54-.65l-2.13-5.33s-1.41,0-.92,1.34,1.36,4.92,1.36,4.92a5.11,5.11,0,0,0-1.12,1.34,7.26,7.26,0,0,0,0,2.41A28.17,28.17,0,0,1,387.76,173.61Z" style="fill: rgb(255, 255, 255); stroke: rgb(38, 50, 56); stroke-linecap: round; stroke-linejoin: round; transform-origin: 384.078px 170.755px;" id="eloah9t8megio" class="animable"></path><path d="M381,178.59s-1.32-2-2-2.17-3.12-.75-3.12-.75l-2.58-6.17s-1.73.06-1.14,1.56,1.65,5.69,1.65,5.69a6.15,6.15,0,0,0-1.38,1.57,7.9,7.9,0,0,0,0,2.79A36.24,36.24,0,0,1,381,178.59Z" style="fill: rgb(255, 255, 255); stroke: rgb(38, 50, 56); stroke-linecap: round; stroke-linejoin: round; transform-origin: 376.519px 175.305px;" id="eluw9p8tp50gi" class="animable"></path><path d="M370.3,184.2s-1.32-2-2-2.17-3.12-.74-3.12-.74l-2.58-6.17s-1.73,0-1.14,1.55,1.65,5.7,1.65,5.7a6.15,6.15,0,0,0-1.38,1.57,7.91,7.91,0,0,0,0,2.79A36.71,36.71,0,0,1,370.3,184.2Z" style="fill: rgb(255, 255, 255); stroke: rgb(38, 50, 56); stroke-linecap: round; stroke-linejoin: round; transform-origin: 365.819px 180.925px;" id="elpnb5s2bfxer" class="animable"></path><path d="M358.79,187.85s-1.32-2-2-2.17-3.12-.74-3.12-.74l-2.58-6.17s-1.73,0-1.14,1.55,1.65,5.7,1.65,5.7a6.15,6.15,0,0,0-1.38,1.57,7.91,7.91,0,0,0,0,2.79A36.49,36.49,0,0,1,358.79,187.85Z" style="fill: rgb(255, 255, 255); stroke: rgb(38, 50, 56); stroke-linecap: round; stroke-linejoin: round; transform-origin: 354.309px 184.575px;" id="elw4rr6xjfim" class="animable"></path><path d="M346.94,191.65s-.95-2.21-1.64-2.48-2.95-1.26-2.95-1.26l-1.51-6.52s-1.71-.24-1.38,1.35.67,5.89.67,5.89a6.23,6.23,0,0,0-1.63,1.31,7.93,7.93,0,0,0-.43,2.76A36.06,36.06,0,0,1,346.94,191.65Z" style="fill: rgb(255, 255, 255); stroke: rgb(38, 50, 56); stroke-linecap: round; stroke-linejoin: round; transform-origin: 342.504px 187.039px;" id="el7gwp5g5yrtt" class="animable"></path><path d="M334.7,193.69s-.73-2.3-1.39-2.63-2.81-1.55-2.81-1.55l-.86-6.63s-1.67-.41-1.5,1.2.08,5.93.08,5.93a6.11,6.11,0,0,0-1.75,1.14,8,8,0,0,0-.7,2.71A36.23,36.23,0,0,1,334.7,193.69Z" style="fill: rgb(255, 255, 255); stroke: rgb(38, 50, 56); stroke-linecap: round; stroke-linejoin: round; transform-origin: 330.235px 188.347px;" id="elwqlbtryn70p" class="animable"></path><path d="M323.55,193s-.09-2.41-.63-2.91-2.29-2.24-2.29-2.24l1-6.63s-1.5-.84-1.77.76-1.52,5.73-1.52,5.73a6.13,6.13,0,0,0-2,.63,7.9,7.9,0,0,0-1.4,2.42A35.93,35.93,0,0,1,323.55,193Z" style="fill: rgb(255, 255, 255); stroke: rgb(38, 50, 56); stroke-linecap: round; stroke-linejoin: round; transform-origin: 319.245px 187px;" id="el33qq3gmmxoe" class="animable"></path><path d="M463.73,127.17s-.93-1.27-1.31-1.33-1.64-.34-1.64-.34l-2.15-3.93s-.84.12-.34,1.08,1.62,3.66,1.62,3.66a3.32,3.32,0,0,0-.47,1.09,7.54,7.54,0,0,0,.42,1.83A13.13,13.13,0,0,1,463.73,127.17Z" style="fill: rgb(255, 255, 255); stroke: rgb(38, 50, 56); stroke-linecap: round; stroke-linejoin: round; transform-origin: 460.931px 125.4px;" id="el4gnf04gr5iq" class="animable"></path><path d="M455.65,130.33s-1-1.12-1.48-1.16-1.89-.25-1.89-.25l-2.35-3.51a.59.59,0,0,0-.43,1c.55.86,1.74,3.28,1.74,3.28a3.08,3.08,0,0,0-.57,1,5,5,0,0,0,.41,1.66A18,18,0,0,1,455.65,130.33Z" style="fill: rgb(255, 255, 255); stroke: rgb(38, 50, 56); stroke-linecap: round; stroke-linejoin: round; transform-origin: 452.492px 128.88px;" id="elsy6ej8p0wx" class="animable"></path><path d="M312.53,199.34s3.09,5.62,3.93,5.9,3.65,1.4,3.65,1.4L323.76,217s2,0,1.13-2.53-2.53-9.54-2.53-9.54a8.66,8.66,0,0,0,1.4-2.53,19.19,19.19,0,0,0,.28-3.37A29.9,29.9,0,0,0,312.53,199.34Z" style="fill: rgb(38, 50, 56); stroke: rgb(38, 50, 56); stroke-linecap: round; stroke-linejoin: round; transform-origin: 318.82px 207.807px;" id="elyh0z9wwzka" class="animable"></path><path d="M325.45,198.5s3.09,5.61,3.93,5.9,3.65,1.4,3.65,1.4l3.65,10.39s2,0,1.12-2.53-2.53-9.55-2.53-9.55a8.49,8.49,0,0,0,1.41-2.52,19.26,19.26,0,0,0,.28-3.37A29.91,29.91,0,0,0,325.45,198.5Z" style="fill: rgb(38, 50, 56); stroke: rgb(38, 50, 56); stroke-linecap: round; stroke-linejoin: round; transform-origin: 331.737px 206.991px;" id="elc3prdua7oz" class="animable"></path><path d="M338.36,195.69s3.09,5.62,3.93,5.9,3.65,1.4,3.65,1.4l3.65,10.39s2,0,1.13-2.53-2.53-9.54-2.53-9.54a8.66,8.66,0,0,0,1.4-2.53,19.19,19.19,0,0,0,.28-3.37A29.9,29.9,0,0,0,338.36,195.69Z" style="fill: rgb(38, 50, 56); stroke: rgb(38, 50, 56); stroke-linecap: round; stroke-linejoin: round; transform-origin: 344.65px 204.181px;" id="el06x31gm7fyv3" class="animable"></path><path d="M349.87,191.76s3.09,5.62,3.94,5.9,3.64,1.4,3.64,1.4l3.65,10.39s2,0,1.13-2.53-2.53-9.54-2.53-9.54a8.66,8.66,0,0,0,1.4-2.53,18.55,18.55,0,0,0,.29-3.37A30,30,0,0,0,349.87,191.76Z" style="fill: rgb(38, 50, 56); stroke: rgb(38, 50, 56); stroke-linecap: round; stroke-linejoin: round; transform-origin: 356.16px 200.251px;" id="el7vy2jf7nioi" class="animable"></path><path d="M361.67,186.93s2.85,5.19,3.63,5.45,3.37,1.3,3.37,1.3l3.37,9.59s1.82,0,1-2.33-2.34-8.82-2.34-8.82a8,8,0,0,0,1.3-2.33,17.74,17.74,0,0,0,.26-3.12A27.71,27.71,0,0,0,361.67,186.93Z" style="fill: rgb(38, 50, 56); stroke: rgb(38, 50, 56); stroke-linecap: round; stroke-linejoin: round; transform-origin: 367.461px 194.775px;" id="elwx9mpcujrm" class="animable"></path><path d="M374,183.06s1.43,2.83,2.13,3.07,3,1.16,3,1.16l3,8.59s1.63,0,.93-2.09-2.09-7.9-2.09-7.9a7,7,0,0,0,1.16-2.09,15.39,15.39,0,0,0-.3-3.83A24,24,0,0,1,374,183.06Z" style="fill: rgb(38, 50, 56); stroke: rgb(38, 50, 56); stroke-linecap: round; stroke-linejoin: round; transform-origin: 378.617px 187.925px;" id="el61k2lrdgfnm" class="animable"></path><path d="M381.81,178.17s1.61,2.11,2.22,2.19,2.66.49,2.66.49l3.82,6.59s1.33-.25.44-1.86-2.95-6.16-2.95-6.16a5.77,5.77,0,0,0,.63-1.9,13.1,13.1,0,0,0-.84-3.11A20.1,20.1,0,0,1,381.81,178.17Z" style="fill: rgb(38, 50, 56); stroke: rgb(38, 50, 56); stroke-linecap: round; stroke-linejoin: round; transform-origin: 386.533px 180.925px;" id="elow9u73e1sii" class="animable"></path><path d="M392.48,172.84s1.61,2.11,2.22,2.19,2.66.48,2.66.48l3.82,6.6s1.33-.25.44-1.86-2.95-6.17-2.95-6.17a5.77,5.77,0,0,0,.63-1.9,13,13,0,0,0-.84-3.1A20.1,20.1,0,0,1,392.48,172.84Z" style="fill: rgb(38, 50, 56); stroke: rgb(38, 50, 56); stroke-linecap: round; stroke-linejoin: round; transform-origin: 397.203px 175.595px;" id="el8j5ppokaix7" class="animable"></path><path d="M401.68,166.89s1.54,1.8,2.13,1.86,2.59.37,2.59.37L410,174.8s1.31-.25.47-1.64-2.75-5.31-2.75-5.31a5.19,5.19,0,0,0,.66-1.67,10.25,10.25,0,0,0-.77-2.7A21.14,21.14,0,0,1,401.68,166.89Z" style="fill: rgb(38, 50, 56); stroke: rgb(38, 50, 56); stroke-linecap: round; stroke-linejoin: round; transform-origin: 406.216px 169.14px;" id="el97h7w34v86m" class="animable"></path><path d="M411.52,160.48s1.52,1.86,2.1,1.92,2.56.4,2.56.4l3.57,5.82s1.29-.24.45-1.66-2.74-5.46-2.74-5.46a5.22,5.22,0,0,0,.63-1.7,11,11,0,0,0-.77-2.75A20.35,20.35,0,0,1,411.52,160.48Z" style="fill: rgb(38, 50, 56); stroke: rgb(38, 50, 56); stroke-linecap: round; stroke-linejoin: round; transform-origin: 416.002px 162.835px;" id="elsubyp4kj4d" class="animable"></path><path d="M420.34,154.19s1.53,1.86,2.11,1.93,2.55.39,2.55.39l3.58,5.83s1.29-.25.45-1.67-2.75-5.45-2.75-5.45a5.26,5.26,0,0,0,.64-1.7,11.15,11.15,0,0,0-.77-2.76A20.33,20.33,0,0,1,420.34,154.19Z" style="fill: rgb(38, 50, 56); stroke: rgb(38, 50, 56); stroke-linecap: round; stroke-linejoin: round; transform-origin: 424.827px 156.55px;" id="eluwjli7zopl" class="animable"></path><path d="M428.73,148.21s1.33,1.61,1.83,1.67,2.22.34,2.22.34l3.11,5.06s1.12-.21.39-1.45-2.39-4.73-2.39-4.73a4.55,4.55,0,0,0,.55-1.48,9.28,9.28,0,0,0-.67-2.39A17.56,17.56,0,0,1,428.73,148.21Z" style="fill: rgb(38, 50, 56); stroke: rgb(38, 50, 56); stroke-linecap: round; stroke-linejoin: round; transform-origin: 432.629px 150.255px;" id="elsomadqcq3l" class="animable"></path><path d="M436.59,142.31s1.21,1.64,1.66,1.7,2,.4,2,.4l2.86,5.1s1-.19.31-1.43-2.21-4.77-2.21-4.77a4.65,4.65,0,0,0,.45-1.46,10.59,10.59,0,0,0-.64-2.4A14.48,14.48,0,0,1,436.59,142.31Z" style="fill: rgb(38, 50, 56); stroke: rgb(38, 50, 56); stroke-linecap: round; stroke-linejoin: round; transform-origin: 440.126px 144.48px;" id="elg49w2x67357" class="animable"></path><path d="M444.63,137.44s1.15,1.4,1.58,1.45,1.92.3,1.92.3l2.69,4.4s1-.18.34-1.26-2.07-4.11-2.07-4.11a4.15,4.15,0,0,0,.48-1.28,8.24,8.24,0,0,0-.58-2.08A15.2,15.2,0,0,1,444.63,137.44Z" style="fill: rgb(38, 50, 56); stroke: rgb(38, 50, 56); stroke-linecap: round; stroke-linejoin: round; transform-origin: 448.008px 139.225px;" id="ela3r8wuy348" class="animable"></path><path d="M452.45,133s1.09,1.2,1.52,1.23,1.87.22,1.87.22l2.54,3.78s.94-.18.35-1.1-1.94-3.55-1.94-3.55a3.34,3.34,0,0,0,.49-1.13,6.07,6.07,0,0,0-.52-1.8A16,16,0,0,1,452.45,133Z" style="fill: rgb(38, 50, 56); stroke: rgb(38, 50, 56); stroke-linecap: round; stroke-linejoin: round; transform-origin: 455.687px 134.44px;" id="elsyizvx1897m" class="animable"></path><path d="M459.75,129.64s1,1.22,1.37,1.26,1.66.26,1.66.26l2.33,3.82s.83-.16.29-1.09-1.79-3.58-1.79-3.58a3.44,3.44,0,0,0,.41-1.11,7.33,7.33,0,0,0-.51-1.81A13.19,13.19,0,0,1,459.75,129.64Z" style="fill: rgb(38, 50, 56); stroke: rgb(38, 50, 56); stroke-linecap: round; stroke-linejoin: round; transform-origin: 462.666px 131.185px;" id="eldweb86k1sc" class="animable"></path><path d="M317.59,189.51s13.19,9.27,43.51-4.49,62.61-34.64,71.88-41.83c13.76-10.67,48.29-24.71,45.77-23.31s-28.36,14.89-35.66,19.66-29.48,21.9-42.4,30-37.62,26.11-54.47,29.48-21.05,3.93-24.7,2.53-5.62-2.25-5.62-2.25Z" style="fill: rgb(255, 255, 255); stroke: rgb(38, 50, 56); stroke-linecap: round; stroke-linejoin: round; transform-origin: 397.39px 161.024px;" id="eli3mu5duzvsj" class="animable"></path><path d="M440,141.67a2.28,2.28,0,0,0-1.42.19c-2.5,2-6.39,5.68-9.59,7.45s-7.1,1.42-8.81,3.66a22.89,22.89,0,0,1-8.64,7.51c-4.68,2.29-6.47,1.48-8.82,5.17s-4.24,3.43-9.59,6-5.35,1.93-8.87,5.33-6.75,6-12.07,6.74-7.46,2.13-9.94,5.68-6.4,3.55-11,3.2-6.39,1.42-8.88,4.26-5.38,1.33-9.23,0-2.84,1.77-6,2.84-7.1-3.2-7.1-3.2l-3,3.28c.94.38,2.44,1,4.5,1.78,3.65,1.4,7.86.84,24.7-2.53s41.56-21.34,54.47-29.48C412.11,162.38,430.77,148.16,440,141.67Z" style="fill: rgb(38, 50, 56); stroke: rgb(38, 50, 56); stroke-linecap: round; stroke-linejoin: round; transform-origin: 378.52px 171.953px;" id="eljitof4l04i" class="animable"></path><path d="M260.58,170.92s1.42,0,1.42-2.13,4.25-2.12,4.6-1.06,2.84-2.84,6-2.13a6.22,6.22,0,0,1,4.25,2.84s2.13-3.55,4.25-2.84a4.77,4.77,0,0,1,2.84,2.48s2.48-3.89,5-2.48,3.55,4.26,4.25,8.15,3.19,9.57,2.49,14.18-15.95-7.09-22.69-9.21S260.58,170.92,260.58,170.92Z" style="fill: rgb(255, 255, 255); stroke: rgb(38, 50, 56); stroke-linecap: round; stroke-linejoin: round; transform-origin: 278.191px 177.144px;" id="el2m1fvp36gu" class="animable"></path><path d="M137.59,100.39s5.32,2.48,7.09,2.48,6-2.48,6-2.48,3.9,6,2.48,6.38-4.61-.71-3.9,3.19,4.61,14.18,5.67,13.11.35-1.77-.35-4.61-1.42-7.79-1.42-7.79,2.48-1.42,2.83,1.06,4.26,13.11,4.26,13.11-2.84,2.13-2.84,4.61,3.9,11.7,3.9,11.7,2.13,0,1.77-2.84-2.12-5.67-1.06-6.38,2.13,2.13,2.83,5a39.12,39.12,0,0,0,1.42,4.61s-2.83.71-2.83,4.61,4.6,12.76,4.6,12.76,2.13,1.06.71-3.9-2.48-8.86-1.06-8.15,2.13,2.83,2.13,3.9,2.12,9.21,2.12,9.21-3.54,1.42-3.19,5,3.9,12.76,5,9.93-.7-6.74-.7-8.86,1.06-2.13,1.77,0,1.06,4.6,2.48,5.67,2.13,2.12,1.77,3.19-4.61,3.54-3.54,5.67,5.31,11.69,5.31,11.69,30.84-1.41,52.1,4.61,49.27,2.48,57.07,2.48,9.56-1.06,5.67-11.34-17.73-13.82-39.7-18.07-42.53-6.38-48.91-6.38-7.09-.71-9.92,2.83-3.9,7.8-6,9.22-3.54-1.07-4.25-3.55a69.27,69.27,0,0,0-2.84-7.09s3.55-2.12,4.26-4.25.35-3.9-1.07-3.9h-6c-1.77,0-3.55-5.67-3.55-5.67s6.74.36,7.09-2.48-1.77-8.15-2.83-8.51-3.9,1.42-5.32,1.42-3.9-5.67-3.19-7.09,6.73-.35,6.73-.35.36-6.38-1.06-8.51-3.9-.35-5.67,0-3.54-5.67-3.54-5.67,4.25-.35,5.31-2.12.71-6.38-1.06-8.51-4.61,1.06-6.38,1.42-3.19-3.19-2.84-4.26,5-1.41,5.67-2.48,1.42-6.38-.35-7.79-6,2.12-7.09,2.12-3.19-2.12-2.12-3.19,4.25-5,4.25-6.38-.71-4.6-2.84-3.54-4.25,5.67-6.73,5.67-6.38-8.15-6.38-8.15Z" style="fill: rgb(255, 255, 255); stroke: rgb(38, 50, 56); stroke-linecap: round; stroke-linejoin: round; transform-origin: 217.632px 141.567px;" id="elhd00cw5xpyi" class="animable"></path><path d="M313,239.32c-2.83-5.67-17-35.44-17-35.44l-10.63,17,5.67,3.19a146.69,146.69,0,0,1,11,11c4.25,5,7.08,12.05,10.63,12.05S315.87,245,313,239.32Zm-14.17-12.76,2.83-3.19,6.73,13.83Z" style="fill: rgb(38, 50, 56); stroke: rgb(38, 50, 56); stroke-linecap: round; stroke-linejoin: round; transform-origin: 300.306px 225.5px;" id="elvh02a6z8yfl" class="animable"></path><path d="M269.79,198.56s-1.77,6.38-4.25,12.76,2.84,9.22,5.67,9.22,3.19,2.12,1.42,8.15-2.13,14.18-7.09,23.75-5.67,18.43-3.19,20.55,8.51.36,8.51.36l3.19,3.19s-2.13,1.06-.71,3.9,13.47,15.59,19.14,24.45,8.5,14.18,8.5,15.24,3.9,9.92,6.74,9.92,5.67-1.77,5.67-.7,6.38,25.16,5.67,29.77-1.07,7.79-5,11.69-5.68,5.67-7.09,8.51a13.94,13.94,0,0,0-1.77,7.09,9,9,0,0,0,1.06,4.25s1.42-6.73,2.48-8.15,3.54-2.48,5.67-5,2.13-3.9,2.13-3.9l5.67-1.07s-.71,2.84-2.48,3.55-5,4.25-5.32,7.09-1.06,7.44-1.06,7.44,3.54-7.44,5.31-9.21,5.32-2.13,6-5a19.11,19.11,0,0,0,.71-3.9l5-3.89s0-13.47-.36-17-.7-6-.7-6,3.89,4.25,3.89,7.8a32.92,32.92,0,0,0,1.07,7.44l1.42,3.9a46.47,46.47,0,0,0,.35-8.51c-.35-3.19-1.77-6.38-1.77-7.44s.35-3.19-.71-4.61-2.13-2.13-2.48-3.9-1.07-3.54-1.42-5.67,1.77-.35-.35-2.12-3.19-2.84-4.61-3.9-3.19-1.78-5-3.9-3.19-2.13-4.26-3.55-.71-2.83-1.06-4.25-3.9-7.09-6-9.57-15.24-22-16.65-24.81-3.19-5.31-3.55-6.73-1.41-1.77-2.48-2.13-1.06-1.06-1.06-2.48-3.9-7.44-6-9.57,1.07-18.78,5.32-28,12-18.78,13.11-21.62,2.84-10.28-2.48-13.47S275.46,194,269.79,198.56Z" style="fill: rgb(38, 50, 56); stroke: rgb(38, 50, 56); stroke-linecap: round; stroke-linejoin: round; transform-origin: 298.53px 293.139px;" id="el0faup44mh0yd" class="animable"></path><path d="M290,199.27c7.8,0,9.57-1.06,5.68-11.34s-17.73-13.82-39.7-18.07-42.53-6.38-48.91-6.38-7.09-.71-9.92,2.83-3.9,7.8-6,9.22a1.94,1.94,0,0,1-1.52.37c-.12,2.58-.31,4.59-1.67,4.59-2.48,0-3.54-1.77-3.54-4.25s-2.48-3.9-5.32-6.38-.71-4.61-.35-6.74-2.48-5-4.26-6.38-.71-7.8,0-10.28-2.48-3.54-5-5-.71-6-.71-9.57-1.06-3.9-3.54-6.38,0-6,0-8.5-2.48-2.48-5-4.61,0-4.25-1.42-8.51-6.73-3.9-7.09-7.44c-.18-1.77,1.06-4.34,2.35-6.46-2.29-2-4.83-7.36-4.83-7.36l-11.7,17.72s5.32,2.48,7.09,2.48,6-2.48,6-2.48,3.9,6,2.48,6.38-4.61-.71-3.9,3.19,4.61,14.18,5.67,13.11.35-1.77-.35-4.61-1.42-7.79-1.42-7.79,2.48-1.42,2.83,1.06,4.26,13.11,4.26,13.11-2.84,2.13-2.84,4.61,3.9,11.7,3.9,11.7,2.13,0,1.77-2.84-2.12-5.67-1.06-6.38,2.13,2.13,2.83,5a39.12,39.12,0,0,0,1.42,4.61s-2.83.71-2.83,4.61,4.6,12.76,4.6,12.76,2.13,1.06.71-3.9-2.48-8.86-1.06-8.15,2.13,2.83,2.13,3.9,2.12,9.21,2.12,9.21-3.54,1.42-3.19,5,3.9,12.76,5,9.93-.7-6.74-.7-8.86,1.06-2.13,1.77,0,1.06,4.6,2.48,5.67,2.13,2.12,1.77,3.19-4.61,3.54-3.54,5.67,5.31,11.69,5.31,11.69,30.84-1.41,52.1,4.61S282.2,199.27,290,199.27Z" style="fill: rgb(38, 50, 56); stroke: rgb(38, 50, 56); stroke-linecap: round; stroke-linejoin: round; transform-origin: 217.61px 141.478px;" id="els7q2q8u9hkb" class="animable"></path><path d="M200.33,163.12s7.44,10.28,9.57,26.58,1.41,36.15,1.41,36.15a75.58,75.58,0,0,0,2.84-25.16c-.71-14.53-6-34.38-7.09-37.21S201.74,159.58,200.33,163.12Z" style="fill: rgb(255, 255, 255); stroke: rgb(38, 50, 56); stroke-linecap: round; stroke-linejoin: round; transform-origin: 207.299px 193.366px;" id="eldkjlgav9aqa" class="animable"></path><path d="M210.6,163.12s7.45,10.28,9.57,26.58,1.42,36.15,1.42,36.15a75.58,75.58,0,0,0,2.84-25.16c-.71-14.53-6-34.38-7.09-37.21S212,159.58,210.6,163.12Z" style="fill: rgb(255, 255, 255); stroke: rgb(38, 50, 56); stroke-linecap: round; stroke-linejoin: round; transform-origin: 217.574px 193.366px;" id="eloy2rrim9kdg" class="animable"></path><path d="M224.08,163.92s6.58,10.86,7.36,27.28-1.56,36.15-1.56,36.15a75.91,75.91,0,0,0,4.89-24.85c.49-14.54-3.18-34.76-4-37.67S225.79,160.51,224.08,163.92Z" style="fill: rgb(255, 255, 255); stroke: rgb(38, 50, 56); stroke-linecap: round; stroke-linejoin: round; transform-origin: 229.447px 194.639px;" id="elwkxicjyuv7" class="animable"></path><path d="M233.3,165.7s6.57,10.85,7.35,27.27-1.56,36.15-1.56,36.15a75.74,75.74,0,0,0,4.9-24.85c.48-14.54-3.18-34.76-4-37.67S235,162.28,233.3,165.7Z" style="fill: rgb(255, 255, 255); stroke: rgb(38, 50, 56); stroke-linecap: round; stroke-linejoin: round; transform-origin: 238.667px 196.41px;" id="elbpliv6a7ghb" class="animable"></path><path d="M240.74,166.4s6.57,10.86,7.35,27.28-1.55,36.15-1.55,36.15A75.91,75.91,0,0,0,251.43,205c.49-14.54-3.18-34.76-4-37.67S242.45,163,240.74,166.4Z" style="fill: rgb(255, 255, 255); stroke: rgb(38, 50, 56); stroke-linecap: round; stroke-linejoin: round; transform-origin: 246.107px 197.125px;" id="elwt01djbv3o" class="animable"></path><path d="M248.54,168.18s6.57,10.85,7.35,27.27-1.56,36.15-1.56,36.15a75.74,75.74,0,0,0,4.9-24.85c.48-14.54-3.18-34.75-4-37.67S250.24,164.76,248.54,168.18Z" style="fill: rgb(255, 255, 255); stroke: rgb(38, 50, 56); stroke-linecap: round; stroke-linejoin: round; transform-origin: 253.907px 198.888px;" id="elytbkh4yp4p" class="animable"></path><path d="M256.34,170.2s6.18,10.33,6.89,26-1.5,34.42-1.5,34.42a72.86,72.86,0,0,0,4.63-23.67c.47-13.84-3-33.09-3.73-35.87S258,166.94,256.34,170.2Z" style="fill: rgb(255, 255, 255); stroke: rgb(38, 50, 56); stroke-linecap: round; stroke-linejoin: round; transform-origin: 261.372px 199.46px;" id="el4hk4r8lpg2b" class="animable"></path><path d="M263.78,170.75s5.87,9.75,6.56,24.51-1.41,32.47-1.41,32.47a68.21,68.21,0,0,0,4.39-22.32c.44-13.06-2.83-31.23-3.57-33.85S265.3,167.68,263.78,170.75Z" style="fill: rgb(255, 255, 255); stroke: rgb(38, 50, 56); stroke-linecap: round; stroke-linejoin: round; transform-origin: 268.57px 198.341px;" id="ely9q4h0jxfx" class="animable"></path><path d="M271.25,172.77a50.69,50.69,0,0,1,6.7,22.9c.77,13.77-1.23,30.28-1.23,30.28a59.69,59.69,0,0,0,4.26-20.8c.37-12.18-3-29.14-3.75-31.58S272.76,169.92,271.25,172.77Z" style="fill: rgb(255, 255, 255); stroke: rgb(38, 50, 56); stroke-linecap: round; stroke-linejoin: round; transform-origin: 276.129px 198.533px;" id="elowlbbuy0tze" class="animable"></path><path d="M279.06,175.46a48.25,48.25,0,0,1,5.64,21c.6,12.64-1.2,27.81-1.2,27.81a58.49,58.49,0,0,0,3.76-19.11c.38-11.19-2.44-26.74-3.07-29S280.37,172.83,279.06,175.46Z" style="fill: rgb(255, 255, 255); stroke: rgb(38, 50, 56); stroke-linecap: round; stroke-linejoin: round; transform-origin: 283.178px 199.094px;" id="elchbf00b7ap5" class="animable"></path><path d="M142.21,81.81c-1.46-3.29-24.48-21.56-46.4-30.69S54.53,33.59,49.05,32.49a55.72,55.72,0,0,0-9.86-1.1s1,2.27,9.29,8a3.89,3.89,0,0,0-1.63.66s-.12,8.78,1,8.47c.94-.25,3.17-5.33,3.86-7,1.19.78,2.49,1.62,3.9,2.5,0,1.6,0,8.4,1,8.13.73-.2,2.28-3.4,3.24-5.55,1.28.77,2.58,1.52,3.89,2.27,0,2.26.11,7.76,1,7.51.7-.19,2.13-3.08,3.1-5.21,1.6.89,3.21,1.77,4.81,2.63,0,2.39.13,7.5,1,7.26.69-.19,2.08-3,3-5.1l3.07,1.63c0,1.72,0,8.31,1,8,.77-.21,2.39-3.62,3.34-5.76l3.26,1.74c0,2.4.14,7.46,1,7.23.68-.18,2.05-2.93,3-5,5.65,3.17,9.53,5.7,10,7.3,1.1,4-1.82,11.33-1.82,11.33l-2.56,2.92,7.67,1.1s-.73-8,.73-12.06,13.89,4.75,13.89,4.75l-1.47,8,3.66,1.46s.36-6.94,1.82-6.94,9.87,8,13.52,9.5S143.67,85.1,142.21,81.81Z" style="fill: rgb(38, 50, 56); stroke: rgb(38, 50, 56); stroke-linecap: round; stroke-linejoin: round; transform-origin: 90.8784px 61.3723px;" id="eljtam4eo2egi" class="animable"></path><path d="M49.59,36.76s.37,8.77,1.46,8.4,3.66-7.67,3.66-7.67S52.51,34.57,49.59,36.76Z" style="fill: rgb(255, 255, 255); stroke: rgb(38, 50, 56); stroke-linecap: round; stroke-linejoin: round; transform-origin: 52.15px 40.5585px;" id="el9i3h65dnxp" class="animable"></path><path d="M58.54,39.94s.36,8.77,1.46,8.4,3.65-7.67,3.65-7.67S61.46,37.75,58.54,39.94Z" style="fill: rgb(255, 255, 255); stroke: rgb(38, 50, 56); stroke-linecap: round; stroke-linejoin: round; transform-origin: 61.095px 43.7385px;" id="elqaj4v3k44m9" class="animable"></path><path d="M66.89,43.72s.36,8.76,1.46,8.4S72,44.45,72,44.45,69.81,41.52,66.89,43.72Z" style="fill: rgb(255, 255, 255); stroke: rgb(38, 50, 56); stroke-linecap: round; stroke-linejoin: round; transform-origin: 69.445px 47.516px;" id="eltxog3ycvya" class="animable"></path><path d="M76,47.89s.37,8.77,1.46,8.4,3.66-7.67,3.66-7.67S79,45.7,76,47.89Z" style="fill: rgb(255, 255, 255); stroke: rgb(38, 50, 56); stroke-linecap: round; stroke-linejoin: round; transform-origin: 78.56px 51.6885px;" id="el5952xjtn7df" class="animable"></path><path d="M83.39,52.07s.36,8.76,1.46,8.4S88.5,52.8,88.5,52.8,86.31,49.87,83.39,52.07Z" style="fill: rgb(255, 255, 255); stroke: rgb(38, 50, 56); stroke-linecap: round; stroke-linejoin: round; transform-origin: 85.945px 55.866px;" id="elvcvvk73ztg" class="animable"></path><path d="M91.14,54.85s.37,8.77,1.46,8.4,3.66-7.67,3.66-7.67S94.06,52.66,91.14,54.85Z" style="fill: rgb(255, 255, 255); stroke: rgb(38, 50, 56); stroke-linecap: round; stroke-linejoin: round; transform-origin: 93.7px 58.6485px;" id="elrztfei0j7z" class="animable"></path><path d="M46.71,79.12s2-7.5,3-6.72,1.9,8.25,1.9,8.25S49,82.27,46.71,79.12Z" style="fill: rgb(255, 255, 255); stroke: rgb(38, 50, 56); stroke-linecap: round; stroke-linejoin: round; transform-origin: 49.16px 76.7048px;" id="elnc2s40t21cj" class="animable"></path><path d="M54.07,79.94s2-7.5,3-6.72,1.9,8.25,1.9,8.25S56.34,83.09,54.07,79.94Z" style="fill: rgb(255, 255, 255); stroke: rgb(38, 50, 56); stroke-linecap: round; stroke-linejoin: round; transform-origin: 56.52px 77.5248px;" id="el0t6zcr20nm5p" class="animable"></path><path d="M63.06,80.73s2-7.5,3-6.72,1.89,8.25,1.89,8.25S65.33,83.89,63.06,80.73Z" style="fill: rgb(255, 255, 255); stroke: rgb(38, 50, 56); stroke-linecap: round; stroke-linejoin: round; transform-origin: 65.505px 78.3167px;" id="el76nxeukd3kp" class="animable"></path><path d="M72.29,82.08s2-7.51,3-6.72,1.89,8.24,1.89,8.24S74.56,85.23,72.29,82.08Z" style="fill: rgb(255, 255, 255); stroke: rgb(38, 50, 56); stroke-linecap: round; stroke-linejoin: round; transform-origin: 74.735px 79.6617px;" id="el72iznj6dt1i" class="animable"></path><path d="M80.06,83.23s2-7.51,3-6.72,1.89,8.24,1.89,8.24S82.33,86.38,80.06,83.23Z" style="fill: rgb(255, 255, 255); stroke: rgb(38, 50, 56); stroke-linecap: round; stroke-linejoin: round; transform-origin: 82.505px 80.8117px;" id="elkbld3rwuq1d" class="animable"></path><path d="M86.62,84.45s2-7.5,3-6.72S91.47,86,91.47,86,88.89,87.6,86.62,84.45Z" style="fill: rgb(255, 255, 255); stroke: rgb(38, 50, 56); stroke-linecap: round; stroke-linejoin: round; transform-origin: 89.045px 82.0397px;" id="eld2k30y9bl0k" class="animable"></path><path d="M91.43,28.11s-4.75.36-6.58-4-18.63-6.58-30.68-5.48-16.08,8-16.08,11.32,12.42,7.31,15,8,34,16.44,36.9,16.8,2.56,0,5.84,1.83,22.65,12.79,28.5,17.9,10.23,11.69,15.34,13.88,9.5,5.48,10.6,1.83,1.46-8.77.36-10.23a16.45,16.45,0,0,1-2.92-9.86c0-5.12,4.38-14.25,1.46-19.36s-7.3-5.48-9.5-5.12-4,1.1-5.11,1.1h-2.19s4.75-10.6,2.92-13.15-24.48-12.06-32.88-12.06S91.43,28.11,91.43,28.11Z" style="fill: rgb(255, 255, 255); stroke: rgb(38, 50, 56); stroke-linecap: round; stroke-linejoin: round; transform-origin: 94.6934px 55.0884px;" id="elssuhl7j8kd" class="animable"></path><path d="M117,34s-12-5.48-17.17-2.56-1.46,10.6,4.39,15,17.17,6.94,20.09.73S119.56,34.32,117,34Z" style="fill: rgb(255, 255, 255); stroke: rgb(38, 50, 56); stroke-linecap: round; stroke-linejoin: round; transform-origin: 111.167px 40.7292px;" id="el1l2ny4vdvr1" class="animable"></path><path d="M117,34s-12-5.48-17.17-2.56c-2.7,1.55-2.94,4.43-1.71,7.45,2.48-1.06,6.56-2.18,7.56,1.32a4.91,4.91,0,0,1-2.17,5.64c.23.2.46.39.71.57a23.32,23.32,0,0,0,6.55,3.33c1.72-1.85,4.36-4.14,6.6-3.69,2,.4,3.44,2.21,4.35,3.78a5.83,5.83,0,0,0,2.59-2.69C127.23,40.89,119.56,34.32,117,34Z" style="fill: rgb(38, 50, 56); stroke: rgb(38, 50, 56); stroke-linecap: round; stroke-linejoin: round; transform-origin: 111.186px 40.2116px;" id="elcn8yknw4vei" class="animable"></path><path d="M81.2,34s1.46-7.31-3.29-9.5S49.78,22.26,55.63,27,77.91,36.14,81.2,34Z" style="fill: rgb(38, 50, 56); stroke: rgb(38, 50, 56); stroke-linecap: round; stroke-linejoin: round; transform-origin: 68.0542px 28.8121px;" id="elydrg7b0648" class="animable"></path><path d="M132.35,46.74s-7.31,11-3.29,12,9.5-5.84,9.86-8.76S134.54,46.37,132.35,46.74Z" style="fill: rgb(38, 50, 56); stroke: rgb(38, 50, 56); stroke-linecap: round; stroke-linejoin: round; transform-origin: 133.396px 52.7438px;" id="elf01ijth5dj4" class="animable"></path><path d="M150.25,56.6a19.16,19.16,0,0,1-9.5,8.4c-6.58,2.56-8.77,9.5-4.75,8.41S145.86,77.06,150.25,56.6Z" style="fill: rgb(38, 50, 56); stroke: rgb(38, 50, 56); stroke-linecap: round; stroke-linejoin: round; transform-origin: 142.116px 65.0626px;" id="elfjrutp45ar5" class="animable"></path><path d="M137.46,88s-24.11-1.1-46.76-4.75-43.11-6.58-46-4-5.12,6.94-1.46,9.13S63.3,95,71.7,98.61s17.17,13.16,27.4,13.16,13.15-2.2,13.15-2.2,9.14,4.39,16.08,2.56,13.52-11,16.44-13.88,3.65-5.85,1.09-8S137.46,88,137.46,88Z" style="fill: rgb(255, 255, 255); stroke: rgb(38, 50, 56); stroke-linecap: round; stroke-linejoin: round; transform-origin: 94.3788px 95.4234px;" id="eljptjgyn0y4f" class="animable"></path><path d="M99.1,111.77c10.23,0,13.15-2.2,13.15-2.2s.9.43,2.34,1l-.87-1c-7.31-8-42-17.9-57.73-23s-12.78,1.82-12.78,1.82C46.86,90.58,63.3,95,71.7,98.61S88.87,111.77,99.1,111.77Z" style="fill: rgb(38, 50, 56); stroke: rgb(38, 50, 56); stroke-linecap: round; stroke-linejoin: round; transform-origin: 78.7902px 98.2325px;" id="elq53ghxkujl" class="animable"></path><path d="M136.53,257.4a3.22,3.22,0,0,0-2.83,3.19c0,2.83.35,4.25-1.78,4.25s-13.11,11-13.11,11,3.19,3.19,5.67.71,10.28-9.22,12-10.28,5.32-2.84,5.32-6S138,257.75,136.53,257.4Z" style="fill: rgb(255, 255, 255); stroke: rgb(38, 50, 56); stroke-linecap: round; stroke-linejoin: round; transform-origin: 130.305px 267.447px;" id="elic03ad1wyls" class="animable"></path><path d="M164.18,213.45s-1.78,1.42-11,0-10.28,5-10.63,7.44a60.18,60.18,0,0,1-4.26,18.79c-3.9,9.57-8.5,13.11-6.38,16.65s8.15,1.78,9.57,1.78,6.38,1.41,6.38-2.84-1.77-16.66-.35-24.1,7.09-9.21,12-7.44,7.09-1.42,7.09-3.9S166,215.93,164.18,213.45Z" style="fill: rgb(255, 255, 255); stroke: rgb(38, 50, 56); stroke-linecap: round; stroke-linejoin: round; transform-origin: 148.987px 235.897px;" id="el7y816l54t6" class="animable"></path><path d="M153.19,213.45c-9.22-1.42-10.28,5-10.63,7.44a60.18,60.18,0,0,1-4.26,18.79l-.3.71c3-2.52,6.17-4.59,8.81-5l.24,0a31.06,31.06,0,0,1,.47-4.23c1.42-7.44,7.09-9.21,12-7.44s7.09-1.42,7.09-3.9-.71-3.9-2.48-6.38C164.18,213.45,162.4,214.87,153.19,213.45Z" style="fill: rgb(38, 50, 56); stroke: rgb(38, 50, 56); stroke-linecap: round; stroke-linejoin: round; transform-origin: 152.305px 226.819px;" id="elftpix1pns77" class="animable"></path><path d="M194,191.48s-8.51.35-14.18-3.19-12.4,0-12.4,2.83,1.06,5.32-.36,6-6.38,5.67-6.38,8.15,1.77,20.2,6,20.91,1.77-7.09,1.77-14.18S171.62,200,172,198.92s5.32-2.13,7.8-.36,6.38,5.32,11,4.61S197.85,196.79,194,191.48Z" style="fill: rgb(38, 50, 56); stroke: rgb(38, 50, 56); stroke-linecap: round; stroke-linejoin: round; transform-origin: 178.295px 206.515px;" id="el9enh0xfigrj" class="animable"></path><path d="M209.19,182.61s-12.76-4.25-15.6-2.12-1.06,13.11-1.77,15.24-9.57,4.61-11,8.15,2.13,19.85,8.15,23,17,0,18.79-6.74-.36-19.84,0-25.87,14.53-13.47,24.1-18.07,20.56-4.61,19.85-6.38-8.15-4.26-14.53-3.55S213.79,176.59,209.19,182.61Z" style="fill: rgb(255, 255, 255); stroke: rgb(38, 50, 56); stroke-linecap: round; stroke-linejoin: round; transform-origin: 216.124px 197.127px;" id="elcdx0oy5elm" class="animable"></path><path d="M204.23,203.88s-7.8,9.92-6.74,13.11,3.9,1.42,5.32,4.61,6,19.14,5.67,20.91-4.25,7.09-1.77,9.93,11.69.7,12.4-3.19-3.54-8.86-5.32-13.83-7.44-19.14-5.31-23.74,6.38-7.45,3.54-9.93S204.23,203.88,204.23,203.88Z" style="fill: rgb(255, 255, 255); stroke: rgb(38, 50, 56); stroke-linecap: round; stroke-linejoin: round; transform-origin: 208.29px 227.38px;" id="elap7gqieocxs" class="animable"></path><path d="M206.71,252.44s-5.32,2.48-3.19,6.38,2.83,7.44,0,14.17-8.86,18.43-7.09,21.27,7.44,1.77,7.44-.36,1.77-13.82,5.67-21.26,7.8-13.82,6.74-17.72S206.71,252.44,206.71,252.44Z" style="fill: rgb(255, 255, 255); stroke: rgb(38, 50, 56); stroke-linecap: round; stroke-linejoin: round; transform-origin: 206.283px 274.085px;" id="elyu405bop2mi" class="animable"></path><path d="M212,251.73s-4.61,2.83-2.83,6.73,3.54,12.76,2.12,17.72-6.38,17-6,18.43,6,3.19,6.73-.71,2.48-16.65,5-23,5.67-12.76,3.9-16.31S214.15,249.6,212,251.73Z" style="fill: rgb(255, 255, 255); stroke: rgb(38, 50, 56); stroke-linecap: round; stroke-linejoin: round; transform-origin: 213.353px 273.503px;" id="ely121rb2cdc9" class="animable"></path><path d="M210.25,306s4.25,8.51,6.38,12.05a47.88,47.88,0,0,0,6,7.45,26.58,26.58,0,0,1,2.49,2.83,6.18,6.18,0,0,1,.7,2.84s2.84.71,3.19,2.48.71,3.9.71,3.9,1.78.71,1.78,4.6a7.08,7.08,0,0,1-2.49,5.68s1.42-3.55,0-5.68a20.12,20.12,0,0,1-2.12-4.25s-1.77,0-2.48-2.48a9.81,9.81,0,0,0-2.84-4.25s-3.54-3.9-7.44-9.22-6-9.92-6-11.69S208.48,302.41,210.25,306Z" style="fill: rgb(38, 50, 56); stroke: rgb(38, 50, 56); stroke-linecap: round; stroke-linejoin: round; transform-origin: 219.818px 326.358px;" id="elpfu0n19pkic" class="animable"></path><path d="M197.49,294.61a5.46,5.46,0,0,0-1.77,4.61c.35,2.84,2.13,15.59,1.42,19.49s1.41,9.93,4.25,6.74.71-13.47.71-17.72,3.54-10.28,1.77-11.7S198.55,295,197.49,294.61Z" style="fill: rgb(255, 255, 255); stroke: rgb(38, 50, 56); stroke-linecap: round; stroke-linejoin: round; transform-origin: 200.028px 310.479px;" id="elwr6d674kwf" class="animable"></path><path d="M205.29,294.61s-1.77,2.48-1.42,7.09,4.61,16.3,5.32,19.85,5.67.71,5-2.48-3.9-7.8-3.9-13.12,5-11,1.77-12.05S206.71,291.78,205.29,294.61Z" style="fill: rgb(255, 255, 255); stroke: rgb(38, 50, 56); stroke-linecap: round; stroke-linejoin: round; transform-origin: 209.038px 307.995px;" id="el2sicdoidtfe" class="animable"></path><path d="M204.93,323.67s-3.19-5-7.44-3.19S194,329.35,195,334.31s3.9,14.17,3.9,14.17,5.32-13.82,6-17A26,26,0,0,0,204.93,323.67Z" style="fill: rgb(255, 255, 255); stroke: rgb(38, 50, 56); stroke-linecap: round; stroke-linejoin: round; transform-origin: 199.715px 334.283px;" id="el1hqaj09a3sb" class="animable"></path><path d="M214.15,319.07s-5.67.35-4.25,4.6,5.31,9.22,3.54,14.54L211,345.65s11-5.32,12-11S216.63,320.48,214.15,319.07Z" style="fill: rgb(255, 255, 255); stroke: rgb(38, 50, 56); stroke-linecap: round; stroke-linejoin: round; transform-origin: 216.382px 332.36px;" id="elnp34bikntv" class="animable"></path><path d="M139,257.75a4.22,4.22,0,0,0-3.19,3.55c-.71,3.19-.71,4.25-2.83,5s-12.76,5.67-14.18,9.57,4.25,8.86,6,6.38,3.19-7.8,7.45-9.57,12.76-6.38,13.47-9.93S143.62,257.4,139,257.75Z" style="fill: rgb(255, 255, 255); stroke: rgb(38, 50, 56); stroke-linecap: round; stroke-linejoin: round; transform-origin: 132.202px 270.312px;" id="elik5qaknvsd" class="animable"></path><path d="M118.81,275.83s-5.67-5-9.92-7.09-6.74-1.42-6.74-1.42a62.1,62.1,0,0,0-6.73-4.25,3.63,3.63,0,0,0-4.61,1.06s-7.44-4.61-11.34-4.61S72,269.8,72,269.8s3.89-3.19,7.08-1.77,6.74,4.25,8.86,4.25,4.61-2.12,4.61-2.12.71,4.25,4.26,4.25a19.61,19.61,0,0,0,5.67-.71,36.29,36.29,0,0,0,5,2.84,43,43,0,0,0,8.15,2.83,49.11,49.11,0,0,1-9.57-.35c-4.25-.71-10.28.35-10.28.35A56.53,56.53,0,0,0,86.91,278c-2.83,0-11,2.49-11,2.49s-6-2.84-9.92-.71-5.32,11.34-5.32,11.34,5.32-3.9,9.22-4.26,3.54,0,7.09-3.18c0,0,3.9,2.83,8.15,2.83s7.44-1.42,10.28-1.06,6.38,1.77,9.21,1.06,6.74-1.77,6.74-1.77-11.7,6.73-17.37,8.5-7.09,2.13-9.22,2.13a9,9,0,0,0-4.6,1.06,13.57,13.57,0,0,0-3.9,2.84c-1.42,1.42-1.77,3.19-2.48,4.25a19.26,19.26,0,0,0-1.42,4.26,54.52,54.52,0,0,1,7.8-6,11.63,11.63,0,0,0,4.25-3.54s8.86,0,12-2.13a33.67,33.67,0,0,0,4.61-3.54,27.56,27.56,0,0,0,6-2.49,21.55,21.55,0,0,0,4.26-2.83A14.26,14.26,0,0,0,117,285.4c3.54-1.77,5.31-2.13,5.67-3.9S122,276.18,118.81,275.83Z" style="fill: rgb(38, 50, 56); stroke: rgb(38, 50, 56); stroke-linecap: round; stroke-linejoin: round; transform-origin: 91.7042px 283.65px;" id="elthp9prnck0b" class="animable"></path><path d="M296.73,174.11s-6-7.09-9.57-5,2.13,25.52,2.13,34-2.84,12.05,1.06,13.11,5.67-9.21,7.44-11,15.6-.71,19.5-2.84,5.67-13.82,3.19-19.14S303.82,179.07,296.73,174.11Z" style="fill: rgb(255, 255, 255); stroke: rgb(38, 50, 56); stroke-linecap: round; stroke-linejoin: round; transform-origin: 303.805px 192.511px;" id="elqc6z6mc3gkm" class="animable"></path><path d="M307.72,213.1s-9.57,24.1-11,30.83-.36,17-2.84,21.27-7.08,7.79-9.92,7.08-5.32-3.54-5.32-3.54-7.08.35-8.15-3.19,1.07-7.8,4.25-11,9.22-11.69,14.89-25.87,4.25-22.68,8.86-25.16S313,201,307.72,213.1Z" style="fill: rgb(255, 255, 255); stroke: rgb(38, 50, 56); stroke-linecap: round; stroke-linejoin: round; transform-origin: 289.721px 237.289px;" id="el3sae3rkc69j" class="animable"></path><path d="M294.25,270.16s-5.32-3.19-8.86-.71-3.9,8.5-2.13,11.34,13.82,18.43,18.08,24.81,2.12,8.51,6.73,9.21,7.8-1.77,6-6-8.51-10.28-12.05-18.43-6-11.34-6-13.11A17.45,17.45,0,0,0,294.25,270.16Z" style="fill: rgb(255, 255, 255); stroke: rgb(38, 50, 56); stroke-linecap: round; stroke-linejoin: round; transform-origin: 298.401px 291.717px;" id="elip64f5mvik" class="animable"></path><path d="M304.17,310.56s-8.86,17-13.11,20.91-3.9,6.38-1.77,7.8,5.67-1.42,6-2.48,8.15-16.66,9.22-18.79,2.48-3.89,2.83-5S305.94,309.85,304.17,310.56Z" style="fill: rgb(255, 255, 255); stroke: rgb(38, 50, 56); stroke-linecap: round; stroke-linejoin: round; transform-origin: 297.569px 325.036px;" id="elrwa8nrn0ixk" class="animable"></path><path d="M307.36,313a61,61,0,0,1-7.44,17.37c-5.32,8.15-5.32,11-2.13,11.69s6.74-2.48,6.74-4.6,4.25-17.37,5.67-20.56S309.49,311.27,307.36,313Z" style="fill: rgb(255, 255, 255); stroke: rgb(38, 50, 56); stroke-linecap: round; stroke-linejoin: round; transform-origin: 303.136px 327.291px;" id="eluxo9lx363ti" class="animable"></path><path d="M304.17,348.84s0-7.8-1.77-9.57-5-1.77-4.61,2.83,2.13,9.93,2.84,16.31,3.54,8.86,5.67,6.38,0-5.32-1.06-8.86A27.79,27.79,0,0,1,304.17,348.84Z" style="fill: rgb(255, 255, 255); stroke: rgb(38, 50, 56); stroke-linecap: round; stroke-linejoin: round; transform-origin: 302.485px 351.956px;" id="elmknb7u65fyk" class="animable"></path><path d="M295,344.23s.35-6-2.48-7.44-4.26,2.48-2.84,6.38a36,36,0,0,1,2.48,13.11c0,5.32,3.9,10.28,6,5.67s-2.48-11.34-2.84-14.53Z" style="fill: rgb(255, 255, 255); stroke: rgb(38, 50, 56); stroke-linecap: round; stroke-linejoin: round; transform-origin: 293.917px 350.13px;" id="elcz072dam1br" class="animable"></path><path d="M299.92,361.24s-1.06-4.6-5-2.48-.71,7.45,1.41,11,7.8,7.8,7.8,7.8S302.05,369,301,365.14Z" style="fill: rgb(255, 255, 255); stroke: rgb(38, 50, 56); stroke-linecap: round; stroke-linejoin: round; transform-origin: 298.596px 367.881px;" id="ell3g7zs3iwva" class="animable"></path><path d="M307.72,361.24s-1.07-4.6-5-2.48-.7,7.45,1.42,11,7.8,7.8,7.8,7.8-2.13-8.51-3.19-12.41Z" style="fill: rgb(255, 255, 255); stroke: rgb(38, 50, 56); stroke-linecap: round; stroke-linejoin: round; transform-origin: 306.405px 367.881px;" id="el5pqo442wp98" class="animable"></path><path d="M314.1,312.33s1.41-.35.35,4.61S312,326.86,311.61,329s0,9.92,0,9.92a15.89,15.89,0,0,1,1.07,5.68c0,3.19.35,6,.35,7.08s1.42,4.26,2.48,6.74,1.78,3.19.36,3.54a4.16,4.16,0,0,1-5-2.83c-1.07-2.84-1.07-6-2.13-8.15s-2.48-7.09-2.13-8.51,2.13-19.49,2.48-22,1.78-7.44,1.78-7.44Z" style="fill: rgb(255, 255, 255); stroke: rgb(38, 50, 56); stroke-linecap: round; stroke-linejoin: round; transform-origin: 311.609px 337.206px;" id="el60nz80viidj" class="animable"></path><path d="M313,360.89s.36.71,2.84,4.61,8.86,5.31,8.86,5.31-3.9-5-5-6.73S315.16,360.18,313,360.89Z" style="fill: rgb(255, 255, 255); stroke: rgb(38, 50, 56); stroke-linecap: round; stroke-linejoin: round; transform-origin: 318.85px 365.781px;" id="elwy2wb4bldrr" class="animable"></path><path d="M455.29,389.15s-62.39-15.8-75.7-16.63-76.53,7.48-79,8.31-39.93,10.82-39.93,10.82-39.1,1.66-48.25,1.66-52.41-.83-58.23,0-63.22,10.82-69.88,12.48S56,411.61,56,411.61H48.5v8.32H461.11Z" style="fill: rgb(255, 255, 255); stroke: rgb(38, 50, 56); stroke-linecap: round; stroke-linejoin: round; transform-origin: 254.805px 396.196px;" id="elplmbun15c5k" class="animable"></path><rect x="48.5" y="419.93" width="412.55" height="68.32" style="fill: rgb(178, 178, 178); stroke: rgb(38, 50, 56); stroke-miterlimit: 10; transform-origin: 254.775px 454.09px;" id="eluvd6tl48uce" class="animable"></rect><rect x="48.5" y="419.93" width="412.55" height="10.35" style="fill: rgb(38, 50, 56); stroke: rgb(38, 50, 56); stroke-linecap: round; stroke-linejoin: round; transform-origin: 254.775px 425.105px;" id="eli5w3lhk96b" class="animable"></rect></g><g id="freepik--character-5--inject-54" class="animable" style="transform-origin: 420.029px 367.298px;"><path d="M406,473.27s-4.44,6.1-6.38,6.94-5.55,1.38-6.66,3.88a10.81,10.81,0,0,0-1.11,3.89h27.48s1.11-3.61,0-5.83a15.48,15.48,0,0,1-1.39-4.44Z" style="fill: rgb(255, 255, 255); stroke: rgb(38, 50, 56); stroke-miterlimit: 10; transform-origin: 405.837px 480.625px;" id="el3aqdeym5frv" class="animable"></path><path d="M419.8,485.2H392.51a9.43,9.43,0,0,0-.66,2.78h27.48A13.08,13.08,0,0,0,419.8,485.2Z" style="fill: rgb(255, 255, 255); stroke: rgb(38, 50, 56); stroke-miterlimit: 10; transform-origin: 405.825px 486.59px;" id="eljv4lcd5bsj" class="animable"></path><path d="M435.43,479.37l.55,8.89h13.33a10.55,10.55,0,0,0-.28-5c-.83-2.5-1.66-4.72-1.66-4.72Z" style="fill: rgb(255, 255, 255); stroke: rgb(38, 50, 56); stroke-miterlimit: 10; transform-origin: 442.459px 483.4px;" id="elc3pj8xlb6is" class="animable"></path><path d="M436,488.26h13.33a10.71,10.71,0,0,0,.09-3.33H435.78Z" style="fill: rgb(255, 255, 255); stroke: rgb(38, 50, 56); stroke-miterlimit: 10; transform-origin: 442.645px 486.595px;" id="elv1wxw6nfp5" class="animable"></path><path d="M395.18,363.89S397.4,392.76,398,403,406,473.27,406,473.27s10.83,6.66,12.22,6.66,3-76.34,3-76.34l14.16,75.78a17.49,17.49,0,0,0,4.72.84c2.22,0,7.22-1.67,7.22-1.67l-4.72-95.49V363.89s-28,3.89-35.54,2.78A63.75,63.75,0,0,1,395.18,363.89Z" style="fill: rgb(38, 50, 56); stroke: rgb(38, 50, 56); stroke-miterlimit: 10; transform-origin: 421.25px 422.05px;" id="el6j8cknq1ogb" class="animable"></path><polyline points="429.05 381.38 422.94 386.1 421.27 403.59" style="fill: none; stroke: gray; stroke-miterlimit: 10; transform-origin: 425.16px 392.485px;" id="el4nmnzsqdvtb" class="animable"></polyline><path d="M431.56,246.59s-11.32-1.42-14.64,2.45-4,11.38-6.32,13.17-3.6-.43-4.63,1.91.65,5.22.65,5.22-.27,11.27,1,11.82,7,.54,7,.54l-.93,4.63,14.32.6,1.26-4.84s10.89-6.31,13.83-11.1,2.23-15.41-.71-19.11S431.56,246.59,431.56,246.59Z" style="fill: rgb(178, 178, 178); stroke: rgb(38, 50, 56); stroke-miterlimit: 10; transform-origin: 425.309px 266.633px;" id="el39vuxnce7d4" class="animable"></path><path d="M414,261.66c-.35.85-.91,1.43-1.25,1.28s-.33-.94,0-1.79.92-1.42,1.26-1.28S414.38,260.82,414,261.66Z" style="fill: rgb(38, 50, 56); transform-origin: 413.387px 261.406px;" id="el4k2h8oyoo72" class="animable"></path><path d="M407.77,271.16a2.63,2.63,0,0,0,3.45-1" style="fill: none; stroke: rgb(38, 50, 56); stroke-linecap: round; stroke-linejoin: round; transform-origin: 409.495px 270.802px;" id="elg8ypifzgzpl" class="animable"></path><path d="M414.14,257.72s1.46-.79,1.62,1.62" style="fill: none; stroke: rgb(38, 50, 56); stroke-linecap: round; stroke-linejoin: round; transform-origin: 414.95px 258.468px;" id="els4fvmnx3ki" class="animable"></path><path d="M442.39,251.88c-2.94-3.71-10.83-5.29-10.83-5.29s-11.32-1.42-14.64,2.45c0,0,6.26-1.58,5.44,1.09s-7.3,6.75-5.07,8.33,4.74.38,3.71,2.72-2.35,4.63-1.26,4.85,4.14-2.29,5.45-1.75,2.77,4.52,1.52,6.54a5.68,5.68,0,0,1-3.59,2.39s2.23,5.83,4.19,7.35a4.29,4.29,0,0,0,3,.92c2.77-1.69,10.43-6.6,12.83-10.49C446,266.2,445.33,255.58,442.39,251.88Z" style="fill: rgb(38, 50, 56); stroke: rgb(38, 50, 56); stroke-miterlimit: 10; transform-origin: 430.899px 263.914px;" id="elimo6rzvv8h" class="animable"></path><path d="M393.88,364.48l.79,6.37s4,4.25,15.41,4.52,25.49-1.06,28.94-2.13,4.25-2.12,4.25-2.12l-.62-7.23S421.76,371.12,393.88,364.48Z" style="fill: rgb(255, 255, 255); stroke: rgb(38, 50, 56); stroke-linecap: round; stroke-linejoin: round; transform-origin: 418.575px 369.648px;" id="el105ite3arzr" class="animable"></path><path d="M412.11,289.5s-11.79,3.68-15.67,7.56-24,42.13-20.69,48.79,15.26,7.5,15.26,7.5-2.22,6.66.56,10,8.6,8.33,25.54,7.77,25.81-3.33,27.2-6.11,2.22-12.76,2.22-12.76,15-8.89,17.77-17.22-10.53-29.6-16.36-36.26a35.43,35.43,0,0,0-17.23-10.65C426.55,287,415.44,286.45,412.11,289.5Z" style="fill: rgb(255, 255, 255); stroke: rgb(38, 50, 56); stroke-miterlimit: 10; transform-origin: 420.029px 329.197px;" id="elo5bsyhaubxe" class="animable"></path><line x1="399.62" y1="316.7" x2="391.01" y2="353.35" style="fill: none; stroke: rgb(38, 50, 56); stroke-miterlimit: 10; transform-origin: 395.315px 335.025px;" id="el70z8wqyo1h" class="animable"></line><line x1="395.73" y1="334.47" x2="389.35" y2="339.74" style="fill: none; stroke: rgb(38, 50, 56); stroke-miterlimit: 10; transform-origin: 392.54px 337.105px;" id="elr9wecc4knl" class="animable"></line><line x1="447.09" y1="330.31" x2="452.36" y2="332.8" style="fill: none; stroke: rgb(38, 50, 56); stroke-miterlimit: 10; transform-origin: 449.725px 331.555px;" id="elm1p622kdln" class="animable"></line><path d="M409.06,290.61a43,43,0,0,1,3.88-4.72c.84-.55,12.77-3.33,16.38-2.22s5.28,6.38,5.28,6.38A94.17,94.17,0,0,0,409.06,290.61Z" style="fill: rgb(255, 255, 255); stroke: rgb(38, 50, 56); stroke-miterlimit: 10; transform-origin: 421.83px 287.01px;" id="elv8jr34x5ztn" class="animable"></path><polygon points="405.73 350.57 396.01 332.25 394.9 338.91 406 355.29 405.73 350.57" style="fill: rgb(38, 50, 56); stroke: rgb(38, 50, 56); stroke-miterlimit: 10; transform-origin: 400.45px 343.77px;" id="el3q2ruq32r7n" class="animable"></polygon><path d="M405.12,292.14s7.55,8.46,8.66,14.57a62.28,62.28,0,0,0,2.22,9.16l3.88-2.5s-2.77-13.32-4.44-17.76-4.34-5.38-4.34-5.38A53,53,0,0,1,405.12,292.14Z" style="fill: rgb(38, 50, 56); stroke: rgb(38, 50, 56); stroke-miterlimit: 10; transform-origin: 412.5px 303.05px;" id="elpuwzfqhoxl" class="animable"></path><path d="M434.32,288.94S436,299.49,436,304.77v6.94L439,312l1-20.08A31.72,31.72,0,0,0,434.32,288.94Z" style="fill: rgb(38, 50, 56); stroke: rgb(38, 50, 56); stroke-miterlimit: 10; transform-origin: 437.16px 300.47px;" id="el3x59uz2r8ep" class="animable"></path><path d="M436.82,307s-21.66,0-24.71,1.66-9.71,43.31-8.33,48.86,25.54,10,31.37,8.05,12.77-8.61,13.33-13.05-3.61-39.69-5.28-42.75S436.82,307,436.82,307Z" style="fill: rgb(108, 152, 255); stroke: rgb(38, 50, 56); stroke-miterlimit: 10; transform-origin: 426.063px 336.515px;" id="el37gvqa9pb5c" class="animable"></path><path d="M412.11,308.65s2.22,17.49,1.67,23.6-.28,8.6,7.21,11.38,23,1.11,24.71-5.55-2.22-25-2.5-28.32S426.55,305,412.11,308.65Z" style="fill: rgb(108, 152, 255); stroke: rgb(38, 50, 56); stroke-miterlimit: 10; transform-origin: 429.12px 325.711px;" id="ely29fv0o1cop" class="animable"></path><path d="M428.49,339.47s.28,9.71-.28,15a62.22,62.22,0,0,0-.28,9.43h5.28s.28-11.1.28-16.65v-8.33Z" style="fill: rgb(38, 50, 56); stroke: rgb(38, 50, 56); stroke-miterlimit: 10; transform-origin: 430.677px 351.41px;" id="eltpe9errdhb" class="animable"></path><polygon points="433.76 343.35 427.93 343.35 427.38 348.35 434.32 348.63 433.76 343.35" style="fill: rgb(255, 255, 255); stroke: rgb(38, 50, 56); stroke-miterlimit: 10; transform-origin: 430.85px 345.99px;" id="elckvvaez562i" class="animable"></polygon></g><g id="freepik--character-4--inject-54" class="animable" style="transform-origin: 311.119px 368.362px;"><path d="M277.61,358.39s1.76,40.23,4,60.89,6.51,44.14,5.94,45.56-2.55,2.55-2,5.38,4.24,7.35,4.24,7.35l16.42-.28s.85-6.51.85-9.9-2.83-4.53-2.83-6.8,3.58-61.19,3.58-61.19l2.87-1s-1.64,61.38-.51,64.21a45.64,45.64,0,0,0,2.83,5.66,12.07,12.07,0,0,0-.85,4.24,31.07,31.07,0,0,0,.57,5.09h17.82s2.55-7.92,2-10.47-5.1-5.66-5.1-7.07S332,452.1,332,444.46s8.24-71.93,8.41-76.74,0-9.65,0-9.65-3.89.45-21.7-.19S280.1,352,277.61,358.39Z" style="fill: rgb(38, 50, 56); stroke: rgb(38, 50, 56); stroke-miterlimit: 10; transform-origin: 309.048px 416.426px;" id="el1z6oyhcj25u" class="animable"></path><line x1="310.73" y1="398.37" x2="321.32" y2="395.07" style="fill: none; stroke: rgb(133, 133, 133); stroke-miterlimit: 10; transform-origin: 316.025px 396.72px;" id="eljz6ntmqdidi" class="animable"></line><line x1="313.24" y1="399.31" x2="323.1" y2="400.8" style="fill: none; stroke: rgb(133, 133, 133); stroke-miterlimit: 10; transform-origin: 318.17px 400.055px;" id="elixpphhy8ei" class="animable"></line><line x1="306.73" y1="399.36" x2="293.71" y2="399.18" style="fill: none; stroke: rgb(133, 133, 133); stroke-miterlimit: 10; transform-origin: 300.22px 399.27px;" id="elanz54dlu7zh" class="animable"></line><line x1="305.57" y1="399.89" x2="297.51" y2="403.56" style="fill: none; stroke: rgb(133, 133, 133); stroke-miterlimit: 10; transform-origin: 301.54px 401.725px;" id="elysdkhaf8q5r" class="animable"></line><line x1="310.42" y1="372.63" x2="309.63" y2="389.09" style="fill: none; stroke: rgb(133, 133, 133); stroke-miterlimit: 10; transform-origin: 310.025px 380.86px;" id="el2wdrwrxkpk" class="animable"></line><line x1="313.35" y1="371.5" x2="312.81" y2="380.75" style="fill: none; stroke: rgb(133, 133, 133); stroke-miterlimit: 10; transform-origin: 313.08px 376.125px;" id="el8arrhpgtl4o" class="animable"></line><path d="M324.11,462.43s-10.71,11.13-7.41,9.68,15.24-7.62,13.18-5.56" style="fill: none; stroke: rgb(133, 133, 133); stroke-miterlimit: 10; transform-origin: 323.093px 467.335px;" id="el3h4a4sd7sug" class="animable"></path><path d="M304.75,465.52s-17.1-2.26-13.59-.82,13.59,3.71,9.68,3.91-12.16,0-12.16,0" style="fill: none; stroke: rgb(133, 133, 133); stroke-miterlimit: 10; transform-origin: 296.715px 466.46px;" id="el7mqsm9ugts6" class="animable"></path><path d="M277.67,364.62l.8.26c4.13,1.29,20.12,6.53,36.48,5.86,18.43-.76,25.68-9,25.68-9l-.24-3.71s-16.58,7.07-35.47,4.7-27.31-4.38-27.31-4.38Z" style="fill: rgb(38, 50, 56); stroke: rgb(38, 50, 56); stroke-miterlimit: 10; transform-origin: 309.12px 364.414px;" id="elr6f2ki76ojl" class="animable"></path><polygon points="307.98 366.48 307.94 370.59 316.85 370.91 317.47 366.17 307.98 366.48" style="fill: rgb(255, 255, 255); stroke: rgb(38, 50, 56); stroke-miterlimit: 10; transform-origin: 312.705px 368.54px;" id="el1vfm5ydic32" class="animable"></polygon><path d="M286.78,289.93s13.92-6.36,19.52-6.16a12.87,12.87,0,0,1,8.6,3.43l25.49,70.87s-4.8,6.47-22.92,8.1-40.68-6-40.68-6Z" style="fill: rgb(178, 178, 178); stroke: rgb(38, 50, 56); stroke-miterlimit: 10; transform-origin: 308.59px 325.082px;" id="elk3typ5c4u2" class="animable"></path><path d="M291.36,286.53s-.07,25.77.82,24.67a73.31,73.31,0,0,0,3.64-6.81s8.1,5.36,8.53,5.37,2.61,0,2.8-1.28,2.91-6.41,2.91-6.41,6.69,7,6.92,4.64-7.74-21.23-8.92-23.68S294.68,276.88,291.36,286.53Z" style="fill: rgb(38, 50, 56); stroke: rgb(38, 50, 56); stroke-miterlimit: 10; transform-origin: 304.172px 295.738px;" id="elah5xgwioish" class="animable"></path><path d="M317.25,308.45s7.54,33.07,9.41,44.56,3.58,21.92,3.58,21.92A67.23,67.23,0,0,0,339,374c3.34-.71,12-5.17,12-5.17l.12-3.53s1-4.32.26-7.26-3.54-11.33-3.54-11.33,4.87,3.29,9.22,3.44,6.9-7,6.27-12.65-7.82-13.56-12.51-21.82-11.64-22.84-16.51-25.92-22.86-5-24.09-5.43S317.25,308.45,317.25,308.45Z" style="fill: rgb(108, 152, 255); stroke: rgb(38, 50, 56); stroke-miterlimit: 10; transform-origin: 336.76px 329.627px;" id="elc9b26pll58c" class="animable"></path><line x1="347.85" y1="346.71" x2="336.5" y2="310.18" style="fill: none; stroke: rgb(38, 50, 56); stroke-miterlimit: 10; transform-origin: 342.175px 328.445px;" id="eljz3xnojbeqq" class="animable"></line><path d="M351.13,365.3s-11.05,7.08-20.58,6.74" style="fill: none; stroke: rgb(38, 50, 56); stroke-miterlimit: 10; transform-origin: 340.84px 368.676px;" id="elzgpctntrcf" class="animable"></path><path d="M270.05,374.44s1.69,5,1.6,7.53,0,6.85-.88,7.24-1.4-1.51-1.38-2.13a8.56,8.56,0,0,0-.55-2.1s-.39,5.18,0,6.85.51,2.93-1.12,2.25-4.82-4.53-5.56-7.05a12.12,12.12,0,0,1,0-6.64c.47-1.65,1.06-6.61,1.06-6.61Z" style="fill: rgb(255, 255, 255); stroke: rgb(38, 50, 56); stroke-miterlimit: 10; transform-origin: 266.675px 384.024px;" id="elbonzbpwfb6g" class="animable"></path><path d="M260.91,368.92s-1.22,4.94.63,5.63,7.39,2.13,8.51-.11a10,10,0,0,0,.8-4.95S263.56,370.26,260.91,368.92Z" style="fill: rgb(108, 152, 255); stroke: rgb(38, 50, 56); stroke-miterlimit: 10; transform-origin: 265.704px 372.283px;" id="el9ignrt0jcvj" class="animable"></path><path d="M293.08,311.12,297.91,379s-11.78-1.26-18.14-3.56-7.78-3-7.78-3l.1-2.69s-1.56,2.85-6.5,1.63-7.17-2.54-6.72-3.56,5-57.74,5.7-60.62,15.65-13.76,17.15-15.16,8.69-5.09,8.69-5.09Z" style="fill: rgb(108, 152, 255); stroke: rgb(38, 50, 56); stroke-miterlimit: 10; transform-origin: 278.362px 332.975px;" id="eliq7uu9o4jb" class="animable"></path><path d="M289.3,283.58s-4.09,5.4-4.46,9.95-1.13,18.29-1.37,19.11,2.9.11,3.79-1.31,3.71-5.06,3.71-5.06l2.11,4.85-1.17-25.37s12-5.59,15.41-1.52,9.91,24.85,9.93,24.22,1.54-8.24,1.54-8.24,4.48,2.44,5.74,2.07,2.12-1.38-1.83-6.92-9.88-13.84-12.93-15.61S294.07,278.15,289.3,283.58Z" style="fill: rgb(108, 152, 255); stroke: rgb(38, 50, 56); stroke-miterlimit: 10; transform-origin: 304.522px 295.867px;" id="ele9qg9ocqz55" class="animable"></path><path d="M274.16,317.71s-1.66,23-2.65,33.32-.8,16.58,2.05,18.14,16,5.55,23.93,4.38" style="fill: none; stroke: rgb(38, 50, 56); stroke-miterlimit: 10; transform-origin: 284.229px 345.736px;" id="elrg3nri4finj" class="animable"></path><path d="M274.84,321.88s11.37,1.24,15.34.55l0,4.78a43.65,43.65,0,0,1-10.17-.16c-4.33-.78-5.16-.81-5.16-.81" style="fill: none; stroke: rgb(38, 50, 56); stroke-miterlimit: 10; transform-origin: 282.51px 324.656px;" id="el2ed7dyxqzu9" class="animable"></path><path d="M290.22,327.21s.63,11.23-.63,11.81-15.33-1-16.35-1.42.52-8.9.52-8.9" style="fill: none; stroke: rgb(38, 50, 56); stroke-miterlimit: 10; transform-origin: 281.634px 333.178px;" id="elvgauxeqrowb" class="animable"></path><path d="M292.18,287.41s6.4,15.24,9,18.87,5.52,4,6.17,1.64.48-21.36.48-21.36S299.32,289.65,292.18,287.41Z" style="fill: rgb(255, 255, 255); stroke: rgb(38, 50, 56); stroke-linecap: round; stroke-linejoin: round; transform-origin: 300.015px 297.985px;" id="ell7vtuyoz62g" class="animable"></path><path d="M307.81,290.3c0-2.23,0-3.74,0-3.74s-8.47,3.09-15.61.85c0,0,1.26,3,2.88,6.65a14,14,0,0,0,7.76.34A9,9,0,0,0,307.81,290.3Z" style="fill: rgb(38, 50, 56); stroke: rgb(38, 50, 56); stroke-miterlimit: 10; transform-origin: 300.005px 290.676px;" id="elg8jnoy7gr5s" class="animable"></path><path d="M283.07,272.93s-1.89-2.48-3.51-.83,1.1,5,2.2,5.88,3-.18,3-1" style="fill: rgb(255, 255, 255); stroke: rgb(38, 50, 56); stroke-linecap: round; stroke-linejoin: round; transform-origin: 281.909px 274.923px;" id="elvsf5u76gwym" class="animable"></path><path d="M307.56,265.31s2.38-3.31,3.29-1,.93,5.56.06,6.24a1.38,1.38,0,0,1-1.57.22l-1-3.29" style="fill: rgb(255, 255, 255); stroke: rgb(38, 50, 56); stroke-linecap: round; stroke-linejoin: round; transform-origin: 309.554px 267.206px;" id="eljde3teiova" class="animable"></path><path d="M281.23,270.66s3.61,9.49,5.56,13.1,10.52,8.47,17,6.62,8.79-13,7.45-16.36-3.6-9.91-3.6-9.91-3.4-3.66-7.75-4.23-9.84,1.52-11.8,3.95S284,269.3,284,269.3Z" style="fill: rgb(255, 255, 255); stroke: rgb(38, 50, 56); stroke-linecap: round; stroke-linejoin: round; transform-origin: 296.418px 275.286px;" id="elss5silh26bm" class="animable"></path><path d="M295.17,281.53c5.78.73,7.93-.64,9.52-2.26" style="fill: rgb(255, 255, 255); stroke: rgb(38, 50, 56); stroke-linecap: round; stroke-linejoin: round; transform-origin: 299.93px 280.501px;" id="elhmjxsexckzk" class="animable"></path><path d="M299.67,267.15s3.88,7.84,1.95,9.23-3.73-.34-4.32-1.19" style="fill: rgb(255, 255, 255); stroke: rgb(38, 50, 56); stroke-linecap: round; stroke-linejoin: round; transform-origin: 299.729px 272.026px;" id="elcil4f0zr03" class="animable"></path><path d="M293.89,270c.29.88.12,1.72-.37,1.88s-1.12-.42-1.41-1.29-.12-1.71.37-1.88S293.6,269.08,293.89,270Z" style="fill: rgb(38, 50, 56); transform-origin: 293px 270.293px;" id="elvaetaxj2s1a" class="animable"></path><path d="M303.14,267.37c.28.88.12,1.71-.37,1.87s-1.12-.41-1.41-1.29-.12-1.71.37-1.87S302.85,266.5,303.14,267.37Z" style="fill: rgb(38, 50, 56); transform-origin: 302.248px 267.66px;" id="el26ynbt21lnx" class="animable"></path><path d="M294.46,267.37s-7.78,2.73-7.61,4A3.09,3.09,0,0,0,290.5,274c2.3-.33,5.87-2,6.52-2.76s.11-3.21-.69-3.86A1.74,1.74,0,0,0,294.46,267.37Z" style="fill: none; stroke: rgb(38, 50, 56); stroke-linecap: round; stroke-linejoin: round; transform-origin: 292.078px 270.579px;" id="elieuyl4n1z6c" class="animable"></path><path d="M301.36,265.1s7.88-2.43,8.5-1.33a3.11,3.11,0,0,1-1.38,4.29c-2,1.1-5.88,1.92-6.89,1.66s-2-2.51-1.73-3.52S301.36,265.1,301.36,265.1Z" style="fill: none; stroke: rgb(38, 50, 56); stroke-linecap: round; stroke-linejoin: round; transform-origin: 305.027px 266.626px;" id="eliyvnlcp5e" class="animable"></path><path d="M296.71,267.45a2.75,2.75,0,0,1,3-.75" style="fill: none; stroke: rgb(38, 50, 56); stroke-linecap: round; stroke-linejoin: round; transform-origin: 298.21px 266.991px;" id="el6ydwmzjf5ow" class="animable"></path><line x1="281.42" y1="271.41" x2="286.85" y2="271.6" style="fill: none; stroke: rgb(38, 50, 56); stroke-linecap: round; stroke-linejoin: round; transform-origin: 284.135px 271.505px;" id="elzro2a1sbsu" class="animable"></line><polygon points="342.97 332.42 343.33 322.26 329.39 323 329.8 346.48 342.68 346.31 342.97 332.42" style="fill: rgb(255, 255, 255); stroke: rgb(38, 50, 56); stroke-miterlimit: 10; transform-origin: 336.36px 334.37px;" id="elohzridwblqo" class="animable"></polygon><path d="M350.44,338.08a3.75,3.75,0,0,1,4.35.36c2.43,1.75,3.78,4.71,2.64,7.36s-2.61,3.44-5.1,3.35-5.07-3.29-5-5.16S348.15,338.41,350.44,338.08Z" style="fill: rgb(108, 152, 255); stroke: rgb(38, 50, 56); stroke-miterlimit: 10; transform-origin: 352.584px 343.353px;" id="elmuzad2wrksk" class="animable"></path><path d="M352.65,340.24s-5.35-7.05-6.55-8.33a9.21,9.21,0,0,0-2.84-2l-.29,2.48s-10.17-.16-10.41.87a4.15,4.15,0,0,0,.33,2.29l1.43.68a17.87,17.87,0,0,0,2.34,4.23c1.39,1.71,4.22,3.89,5.25,4.14s5.59.4,5.59.4,3,2.6,4.31,1.2S352.79,342.11,352.65,340.24Z" style="fill: rgb(255, 255, 255); stroke: rgb(38, 50, 56); stroke-miterlimit: 10; transform-origin: 342.656px 338.262px;" id="elre9dltquwo" class="animable"></path><line x1="334.32" y1="336.26" x2="340.07" y2="337.92" style="fill: none; stroke: rgb(38, 50, 56); stroke-miterlimit: 10; transform-origin: 337.195px 337.09px;" id="el815kxozqxtd" class="animable"></line><line x1="335.48" y1="338.58" x2="340.8" y2="340.85" style="fill: none; stroke: rgb(38, 50, 56); stroke-miterlimit: 10; transform-origin: 338.14px 339.715px;" id="el7gwo14g1q33" class="animable"></line><line x1="337.86" y1="341.58" x2="342.37" y2="343.19" style="fill: none; stroke: rgb(38, 50, 56); stroke-miterlimit: 10; transform-origin: 340.115px 342.385px;" id="elfwca3s1ze5l" class="animable"></line><path d="M306.89,487.2s-.63-11-2.54-12.95-8.07-1.06-10.83.21-3.82,3.82-6.15,6.16a8.81,8.81,0,0,0-2.76,5.73,6.32,6.32,0,0,0,.42,1.91h21.86Z" style="fill: rgb(255, 255, 255); stroke: rgb(38, 50, 56); stroke-miterlimit: 10; transform-origin: 295.75px 480.687px;" id="elol2n4bxwrtn" class="animable"></path><path d="M284.61,486.35a6.32,6.32,0,0,0,.42,1.91h21.86V487.2s0-.49-.09-1.28H284.64A3.73,3.73,0,0,0,284.61,486.35Z" style="fill: rgb(255, 255, 255); stroke: rgb(38, 50, 56); stroke-miterlimit: 10; transform-origin: 295.75px 487.09px;" id="elxjc0tzr6rf" class="animable"></path><path d="M331.51,474.25s-3.18-3.61-4.88-2.12-13.86,5.44-13.86,5.44-.36,4.11-.36,6.44a12.49,12.49,0,0,0,.64,4h28.86s.85-3.39-.84-5.94-8.28-4.46-8.28-4.46Z" style="fill: rgb(255, 255, 255); stroke: rgb(38, 50, 56); stroke-miterlimit: 10; transform-origin: 327.267px 479.89px;" id="el2tfscaumrrx" class="animable"></path><path d="M313.05,488h28.86a9.35,9.35,0,0,0,.2-2.54H312.5A11.54,11.54,0,0,0,313.05,488Z" style="fill: rgb(255, 255, 255); stroke: rgb(38, 50, 56); stroke-miterlimit: 10; transform-origin: 327.313px 486.73px;" id="elsqdotplxtk" class="animable"></path><path d="M281.23,270.66s-3.17-11.93-2.78-14.89,12.45-7.62,17.67-7.29,6.87,2.08,7.26,3.09,4.16,10.2,4.16,10.2-11-1.81-15.73.57a26,26,0,0,0-8.17,6.5A10.28,10.28,0,0,1,281.23,270.66Z" style="fill: rgb(108, 152, 255); stroke: rgb(38, 50, 56); stroke-linecap: round; stroke-linejoin: round; transform-origin: 292.978px 259.562px;" id="elqps5jkf9izr" class="animable"></path><path d="M281.23,270.66a6.18,6.18,0,0,0,6.69-1c3.23-2.8,7.56-7.64,11.69-6.87s8.21,3.42,8.9,1.57-1.72-4.43-6.86-6.07a13.78,13.78,0,0,0-13.86,3.46A48.35,48.35,0,0,0,281.23,270.66Z" style="fill: rgb(108, 152, 255); stroke: rgb(38, 50, 56); stroke-linecap: round; stroke-linejoin: round; transform-origin: 294.928px 264.449px;" id="elsd84p5ergl" class="animable"></path></g><g id="freepik--character-3--inject-54" class="animable" style="transform-origin: 218.806px 408.007px;"><path d="M237.22,363.18l7.12-17.59a27.75,27.75,0,0,1-1.34-4.46,5.07,5.07,0,0,1,.9-3.11,3.76,3.76,0,0,1,1.55-.9s2.45-6.68,3.34-4.89,0,4.89,0,4.89,2.45,4.68,1.79,6.68a7.48,7.48,0,0,1-2.68,3.34s-2.22,18.26-4.23,21.6a25.5,25.5,0,0,1-2.89,4.23Z" style="fill: rgb(255, 255, 255); stroke: rgb(38, 50, 56); stroke-linecap: round; stroke-linejoin: round; transform-origin: 243.956px 352.448px;" id="elspd01cerfo" class="animable"></path><path d="M191.12,403l-.44,24.5s-1.11,6.68-1.11,8,2.67,5.12,3.78,5.35,2.67-.67,2.45-1.34-.89-.45-1.11-1.11a8.4,8.4,0,0,1-.23-2S196,438,196,436s-2-7.13-2-7.13l6.68-25.16Z" style="fill: rgb(255, 255, 255); stroke: rgb(38, 50, 56); stroke-linecap: round; stroke-linejoin: round; transform-origin: 195.125px 421.943px;" id="elypd2mb6xjq" class="animable"></path><polygon points="210.72 356.94 210.94 364.51 220.96 364.51 220.96 356.94 210.72 356.94" style="fill: rgb(255, 255, 255); stroke: rgb(38, 50, 56); stroke-linecap: round; stroke-linejoin: round; transform-origin: 215.84px 360.725px;" id="elimq0rhjj8pg" class="animable"></polygon><path d="M203.37,348.7s-3.56-.89-3.34,2.68,6.9,4.23,6.9,4.23Z" style="fill: rgb(255, 255, 255); stroke: rgb(38, 50, 56); stroke-linecap: round; stroke-linejoin: round; transform-origin: 203.475px 352.106px;" id="el6jj3urrc2gs" class="animable"></path><path d="M227.42,346.92c.44-.67,2.89-2.45,2.89,1.34s-3.34,7.35-4.67,7.35S227.42,346.92,227.42,346.92Z" style="fill: rgb(255, 255, 255); stroke: rgb(38, 50, 56); stroke-linecap: round; stroke-linejoin: round; transform-origin: 227.81px 350.762px;" id="elerr2ccbnh2o" class="animable"></path><path d="M221.41,330.22s-6.46-5.79-14.7.45-4.68,18-2,22.49a14.45,14.45,0,0,0,13.07,6.64c6.1-.41,9.42-4.76,10.44-10.46.15-.84.1-10.75-.8-10.43,0,0,4.45-1.56,3.12-6.91S223.19,327.55,221.41,330.22Z" style="fill: rgb(38, 50, 56); stroke: rgb(38, 50, 56); stroke-linecap: round; stroke-linejoin: round; transform-origin: 216.191px 343.801px;" id="elh98lxi81h4f" class="animable"></path><path d="M225.86,366.29a13.55,13.55,0,0,0-7.13-3.11c-4.23-.45-10,.66-11.35,1.33s-1.78,3.12-1.78,3.12Z" style="fill: rgb(255, 255, 255); stroke: rgb(38, 50, 56); stroke-linecap: round; stroke-linejoin: round; transform-origin: 215.73px 365.353px;" id="eli8og00l29x" class="animable"></path><path d="M199.36,407.71s1.13,26.52,2.24,37.87,4.64,32.32,4.64,32.32h7l1.48-50.6h1.78L218.23,478h8.35s2.35-24.35,3.27-33.08c1.41-13.42.91-35.61.91-35.61Z" style="fill: rgb(38, 50, 56); stroke: rgb(38, 50, 56); stroke-linecap: round; stroke-linejoin: round; transform-origin: 215.103px 442.855px;" id="el2q1hhonso64" class="animable"></path><line x1="211.83" y1="427.3" x2="220.52" y2="427.3" style="fill: none; stroke: rgb(133, 133, 133); stroke-miterlimit: 10; transform-origin: 216.175px 427.3px;" id="elqze6cke7w8" class="animable"></line><path d="M206.24,477.9v9a1.34,1.34,0,0,0,1.34,1.34h5.49a1.35,1.35,0,0,0,1.33-1.52l-1.15-8.84Z" style="fill: rgb(255, 255, 255); stroke: rgb(38, 50, 56); stroke-linecap: round; stroke-linejoin: round; transform-origin: 210.325px 483.06px;" id="elsyq6nrlfsc" class="animable"></path><path d="M218.23,478v8.68a1.34,1.34,0,0,0,1.34,1.34H225a1.33,1.33,0,0,0,1.34-1.3l.29-8.72Z" style="fill: rgb(255, 255, 255); stroke: rgb(38, 50, 56); stroke-linecap: round; stroke-linejoin: round; transform-origin: 222.43px 483.01px;" id="elqh7ywtw53dk" class="animable"></path><path d="M206.27,366.52c-.67.44-8.69,8-12,14.91s-7.35,22.05-7.35,22.05l11.58,2.45s-1.11,3.78.67,4.23,30.5,1.11,31.84.22-.44-28.28-.44-28.28l11.8-3.56s1.56-7.13-.67-11.13a17.45,17.45,0,0,0-4.45-5.57l-11.36,4.45Z" style="fill: rgb(255, 255, 255); transform-origin: 214.91px 386.33px;" id="elcb7sai159a" class="animable"></path><path d="M191.31,388.86c-.17.49-.33,1-.5,1.49H231c0-.51-.05-1-.07-1.49Z" style="fill: rgb(108, 152, 255); transform-origin: 210.905px 389.605px;" id="elm5fgbfbnvvm" class="animable"></path><path d="M189.91,393.11c-.15.51-.31,1-.46,1.49H231.2l-.06-1.49Z" style="fill: rgb(108, 152, 255); transform-origin: 210.325px 393.855px;" id="elsguzguzr9u" class="animable"></path><path d="M187.4,401.63c-.19.66-.32,1.17-.41,1.49h44.48c0-.49,0-1,0-1.49Z" style="fill: rgb(108, 152, 255); transform-origin: 209.23px 402.375px;" id="el1k3mod20mt8" class="animable"></path><path d="M192.87,384.6c-.19.48-.38,1-.57,1.49h38.48c0-.54-.06-1-.09-1.49Z" style="fill: rgb(108, 152, 255); transform-origin: 211.54px 385.345px;" id="elj013bktu9z" class="animable"></path><path d="M188.62,397.37c-.16.52-.3,1-.44,1.49h43.19l-.06-1.49Z" style="fill: rgb(108, 152, 255); transform-origin: 209.775px 398.115px;" id="elo6jcpy3mzif" class="animable"></path><path d="M198.19,407.37h33.25c0-.45,0-.95,0-1.49h-33.2l.2.05A9.62,9.62,0,0,0,198.19,407.37Z" style="fill: rgb(108, 152, 255); transform-origin: 214.815px 406.625px;" id="elmged774k85m" class="animable"></path><path d="M233.45,363.32l-3.8,1.49H240a19.08,19.08,0,0,0-1.21-1.49Z" style="fill: rgb(108, 152, 255); transform-origin: 234.825px 364.065px;" id="elpqnlmd9w5z" class="animable"></path><path d="M205.08,367.57c-.42.4-.93.91-1.5,1.49h38.76a8.4,8.4,0,0,0-.59-1.49Z" style="fill: rgb(108, 152, 255); transform-origin: 222.96px 368.315px;" id="el9lnl509bhwl" class="animable"></path><path d="M197.56,376.09c-.36.49-.71,1-1.05,1.49h46c.07-.41.14-.91.2-1.49Z" style="fill: rgb(108, 152, 255); transform-origin: 219.61px 376.835px;" id="elbmya4cbmtqb" class="animable"></path><path d="M194.81,380.34c-.2.37-.39.73-.57,1.09-.06.13-.12.27-.19.4h37.38l4.93-1.49Z" style="fill: rgb(108, 152, 255); transform-origin: 215.205px 381.085px;" id="elpuvhm193azs" class="animable"></path><path d="M201,371.83c-.42.48-.84,1-1.27,1.49h43.12c0-.49,0-1-.05-1.49Z" style="fill: rgb(108, 152, 255); transform-origin: 221.29px 372.575px;" id="eldoiitqdt1tk" class="animable"></path><line x1="198.47" y1="405.93" x2="200.92" y2="380.54" style="fill: rgb(255, 255, 255); stroke: rgb(38, 50, 56); stroke-linecap: round; stroke-linejoin: round; transform-origin: 199.695px 393.235px;" id="el9zp8ar5btf" class="animable"></line><line x1="230.54" y1="382.1" x2="229.2" y2="376.09" style="fill: rgb(255, 255, 255); stroke: rgb(38, 50, 56); stroke-linecap: round; stroke-linejoin: round; transform-origin: 229.87px 379.095px;" id="elh1sxhlg3txa" class="animable"></line><path d="M206.27,366.52c-.67.44-8.69,8-12,14.91s-7.35,22.05-7.35,22.05l11.58,2.45s-1.11,3.78.67,4.23,30.5,1.11,31.84.22-.44-28.28-.44-28.28l11.8-3.56s1.56-7.13-.67-11.13a17.45,17.45,0,0,0-4.45-5.57l-11.36,4.45Z" style="fill: none; stroke: rgb(38, 50, 56); stroke-miterlimit: 10; transform-origin: 214.91px 386.33px;" id="elvgwylah7qlo" class="animable"></path></g><g id="freepik--characters-2--inject-54" class="animable" style="transform-origin: 175.685px 375.093px;"><path d="M157.68,292,159,302.23l10.46-.44-.22-7.57s5.12,1.56,8.46-2.23-1.34-14.47-2.67-17.81S159,285.09,157.68,292Z" style="fill: rgb(255, 255, 255); stroke: rgb(38, 50, 56); stroke-linecap: round; stroke-linejoin: round; transform-origin: 168.28px 287.955px;" id="elgwo2okfsi3h" class="animable"></path><path d="M156.57,264.6a12.06,12.06,0,0,0-9.8,7.58c-2.9,7.12,2.89,13.13,6.9,17.36s6.68,8,11.58,6.46,8.68-8.91,11.13-17.14,1.34-15.59-4-16.48S160.35,261.93,156.57,264.6Z" style="fill: rgb(38, 50, 56); stroke: rgb(38, 50, 56); stroke-linecap: round; stroke-linejoin: round; transform-origin: 161.802px 279.157px;" id="elosrmsvp03d" class="animable"></path><path d="M153,269.5s-8-8.68-18.92-6-12.69,19.15-8.91,24.49,4,12.25,2.67,14.7,2,8.91,10,6.68,10.25-14,6-22S138.75,273.07,143,270s9.13,3.56,10.47,2A1.48,1.48,0,0,0,153,269.5Z" style="fill: rgb(38, 50, 56); stroke: rgb(38, 50, 56); stroke-linecap: round; stroke-linejoin: round; transform-origin: 138.667px 286.409px;" id="elsjntd3vm3e" class="animable"></path><path d="M176.61,306.47s-3.34-6-6.68-7.13-16.93,0-18,2.23a29.19,29.19,0,0,0-1.78,4.67Z" style="fill: rgb(115, 115, 115); stroke: rgb(38, 50, 56); stroke-miterlimit: 10; transform-origin: 163.38px 302.683px;" id="elnc7tjkwo8j" class="animable"></path><path d="M126.79,371.49s0,9.9-.72,14-1.44,10.62,1.26,13.85c1.55,1.86,2.52,2.16,2.88.9s.72-3.59.72-3.59.72,2.15,1.08,0-.36-4.68-.9-6.84-1.26-4.86-1.26-4.86l3.6-12.24Z" style="fill: rgb(255, 255, 255); stroke: rgb(38, 50, 56); stroke-linecap: round; stroke-linejoin: round; transform-origin: 129.43px 386.247px;" id="elpexlr7m9nre" class="animable"></path><path d="M139.87,313.81a18.93,18.93,0,0,0-6,10.25c-1.12,6.23-16.93,48.09-16.93,48.09s11.58,8,16.48,8a19.23,19.23,0,0,0,7.35-1.12l8.9-64.12S145.21,309.58,139.87,313.81Z" style="fill: rgb(115, 115, 115); stroke: rgb(38, 50, 56); stroke-miterlimit: 10; transform-origin: 133.305px 346.173px;" id="elgybnt6dbtog" class="animable"></path><path d="M134.52,366.81a137.27,137.27,0,0,0-1.11,22.26c.45,11.58,7.57,31.84,7.57,34.74s-2.45,15.81-.89,22.49,6.46,24,6.46,27.83-1.56,13.81-.23,14,9.8,0,9.8,0,1.78.44,1.56-3.12c-.11-1.78-1.56-4.68-1.56-5.34s-2-8.24-2-8.91,1.33-27.16,2-37.85,2.23-36.74,2.23-36.74l1.78.22v33c0,11.8-.45,26.71.44,33.17s.67,25.61.67,25.61H179.5s1.34-.89-.67-3.79-4.67-3.78-6.23-5.12-2.9-8.24-2.9-8.24,6-20.48,6.46-27.16,1.11-23.6,1.11-24.72,8-17.14,8-27.61a169.92,169.92,0,0,0-2.23-23.6Z" style="fill: rgb(255, 255, 255); stroke: rgb(38, 50, 56); stroke-linecap: round; stroke-linejoin: round; transform-origin: 159.306px 427.512px;" id="eldhmrs0sha4a" class="animable"></path><path d="M134.52,366.81a137.27,137.27,0,0,0-1.11,22.26,76.53,76.53,0,0,0,2.13,13.37c3,1.23,12.24,4.37,22.36,1.17.27-4.39.45-7.41.45-7.41l1.78.22v7.39c3.53,1.19,13.55,3.78,23.09-.76a42.61,42.61,0,0,0,2.07-11.53,169.92,169.92,0,0,0-2.23-23.6Z" style="fill: rgb(108, 152, 255); stroke: rgb(38, 50, 56); stroke-linecap: round; stroke-linejoin: round; transform-origin: 159.316px 386.22px;" id="elykmnvhy4sqk" class="animable"></path><path d="M157.9,403.61c0-.65.08-1.27.11-1.85a36.43,36.43,0,0,1-22.84-1c.12.54.24,1.09.37,1.64C138.53,403.67,147.78,406.81,157.9,403.61Z" style="fill: rgb(108, 152, 255); stroke: rgb(38, 50, 56); stroke-linecap: round; stroke-linejoin: round; transform-origin: 146.59px 402.882px;" id="elze5mj89i5t" class="animable"></path><path d="M183.9,400.62A36.19,36.19,0,0,1,160.13,402v1.83c3.53,1.19,13.55,3.78,23.09-.76C183.46,402.24,183.69,401.43,183.9,400.62Z" style="fill: rgb(108, 152, 255); stroke: rgb(38, 50, 56); stroke-linecap: round; stroke-linejoin: round; transform-origin: 172.015px 403.135px;" id="elq7f8daelyp" class="animable"></path><line x1="152.34" y1="395.75" x2="166.14" y2="396.64" style="fill: none; stroke: rgb(38, 50, 56); stroke-linecap: round; stroke-linejoin: round; transform-origin: 159.24px 396.195px;" id="elskuilr7dr1" class="animable"></line><path d="M162.58,304.68s-10.47-1.11-18.26,5.35c0,0-4.45,2.67-4.45,3.78s-4,38.75-5.35,44.31-2,10-2,10,16.92,5.57,27.16,5.35,28.73-3.34,28.73-3.34,0-43.2-1.12-50.1-.89-8.46-5.34-11.58C180.78,307.65,169.7,304.68,162.58,304.68Z" style="fill: rgb(115, 115, 115); stroke: rgb(38, 50, 56); stroke-miterlimit: 10; transform-origin: 160.465px 339.042px;" id="elwveycn2e76q" class="animable"></path><polygon points="134.97 356.56 173.71 305.8 178.16 306.91 133.63 362.58 134.97 356.56" style="fill: rgb(38, 50, 56); stroke: rgb(38, 50, 56); stroke-linecap: round; stroke-linejoin: round; transform-origin: 155.895px 334.19px;" id="elfxk0uk18b1" class="animable"></polygon><path d="M156.12,488.16s1.78.44,1.56-3.12c-.11-1.78-1.56-4.68-1.56-5.34s-1.59-6.69-1.94-8.46h-8a18.59,18.59,0,0,1,.37,2.89c0,3.79-1.56,13.81-.23,14S156.12,488.16,156.12,488.16Z" style="fill: rgb(38, 50, 56); stroke: rgb(38, 50, 56); stroke-linecap: round; stroke-linejoin: round; transform-origin: 151.741px 479.732px;" id="el6nob30i4goa" class="animable"></path><path d="M179.5,488.16s1.34-.89-.67-3.79-4.67-3.78-6.23-5.12-2.9-8.24-2.9-8.24l-8.58.15c.23,7.79.12,17,.12,17Z" style="fill: rgb(38, 50, 56); stroke: rgb(38, 50, 56); stroke-linecap: round; stroke-linejoin: round; transform-origin: 170.529px 479.585px;" id="elupe3vwbc2uk" class="animable"></path><path d="M211.12,359.54l9.12,3.37a44.53,44.53,0,0,1,8.82-2.43c.93-.09,5.37,2.56,5.37,2.56s-3.32,1-5.24,1.67c-1.16.38-4.51,3.06-6.26,3.34s-4.35-1.08-4.35-1.08l-8.8.83Z" style="fill: rgb(255, 255, 255); stroke: rgb(38, 50, 56); stroke-linecap: round; stroke-linejoin: round; transform-origin: 222.105px 363.814px;" id="elejkbf8kgn5n" class="animable"></path><path d="M180.07,308.8s6.77-.5,9.56,3.82,14.2,39.73,14.2,39.73l13.22,8L214.56,378s-17.65-6.34-23.1-10.53-8.16-46.11-8.16-46.11" style="fill: rgb(115, 115, 115); stroke: rgb(38, 50, 56); stroke-miterlimit: 10; transform-origin: 198.56px 343.391px;" id="elq1aroh862bi" class="animable"></path></g><g id="freepik--character-1--inject-54" class="animable" style="transform-origin: 65.3041px 372.513px;"><path d="M84.55,274.82l1.26,5s2.88,1.62,1.8,3.24-2.16,1.62-2.16,1.62.72,8.09-.54,10.25-6.11,2.34-6.11,2.34l-1.44,6.84-14.94-5.4v-5.58A24.48,24.48,0,0,1,61,284.36c.18-4.68,7.56-9.54,12.42-10.62S84.55,274.82,84.55,274.82Z" style="fill: rgb(255, 255, 255); stroke: rgb(38, 50, 56); stroke-linecap: round; stroke-linejoin: round; transform-origin: 74.4232px 288.774px;" id="elui292og5fq" class="animable"></path><path d="M73.4,287.78S82,279,85.81,274.64s2.7-9.36.36-14-17.45-4.86-26.27-2S46,268.34,46.76,275s13.14,15.3,14.58,17.81,4.32,3.24,7,1.62,2-5.39,2.34-6.47S73.4,287.78,73.4,287.78Z" style="fill: rgb(108, 152, 255); stroke: rgb(38, 50, 56); stroke-linecap: round; stroke-linejoin: round; transform-origin: 67.495px 276.029px;" id="ellodjht8dv0s" class="animable"></path><path d="M83.38,268.39a14.19,14.19,0,0,1-6.78,7.69c-7.81,3.9-14.42,5.4-15.32,10.51" style="fill: none; stroke: rgb(38, 50, 56); stroke-linecap: round; stroke-miterlimit: 10; transform-origin: 72.33px 277.49px;" id="elke3xflxt7z" class="animable"></path><path d="M84.72,262.56a14.29,14.29,0,0,1-.17,1.56" style="fill: none; stroke: rgb(38, 50, 56); stroke-linecap: round; stroke-miterlimit: 10; transform-origin: 84.635px 263.34px;" id="elnfga8f7zes" class="animable"></path><path d="M58.57,280.09A14.9,14.9,0,0,1,62.18,277c6-3.91,9-3,12.32-6" style="fill: none; stroke: rgb(38, 50, 56); stroke-linecap: round; stroke-miterlimit: 10; transform-origin: 66.535px 275.545px;" id="eljonqex9g2ii" class="animable"></path><path d="M57.38,283.89a2.68,2.68,0,0,1,0-1.44" style="fill: none; stroke: rgb(38, 50, 56); stroke-linecap: round; stroke-miterlimit: 10; transform-origin: 57.3307px 283.17px;" id="elo0pzw7t1uqa" class="animable"></path><path d="M77.51,280.28s-9.55,5.13-12.32,9" style="fill: none; stroke: rgb(38, 50, 56); stroke-linecap: round; stroke-miterlimit: 10; transform-origin: 71.35px 284.78px;" id="elqnhcf9smq2" class="animable"></path><path d="M74.3,288.14s-2.16-4.68-4.5-4-1.26,7.38,1.44,8.45,4.5-2.15,4.5-2.15" style="fill: rgb(255, 255, 255); stroke: rgb(38, 50, 56); stroke-linecap: round; stroke-linejoin: round; transform-origin: 72.1276px 288.44px;" id="elx9oxwcamt2" class="animable"></path><path d="M36,370s0,9.9-.72,14-1.44,10.61,1.26,13.85c1.55,1.86,2.52,2.16,2.88.9s.72-3.6.72-3.6.72,2.16,1.08,0-.36-4.67-.9-6.83S39,383.52,39,383.52l3.6-12.24Z" style="fill: rgb(255, 255, 255); stroke: rgb(38, 50, 56); stroke-linecap: round; stroke-linejoin: round; transform-origin: 38.6096px 384.757px;" id="eltwls0b0g668" class="animable"></path><path d="M53.06,307s-3.6,1.8-5.94,7.92S32,368.4,32.18,368.94a12,12,0,0,0,6.84,4,21.63,21.63,0,0,0,5.4,0S54.5,315,55.4,311.35,54.5,305.77,53.06,307Z" style="fill: rgb(255, 255, 255); transform-origin: 43.9099px 339.869px;" id="elc4tdlc5j5i" class="animable"></path><path d="M41.86,332.63c.13-.45.25-.89.38-1.33l.06,0a22.21,22.21,0,0,0,10.06-10l.11-.17,1.33-1.28c-.1.54-.21,1.1-.31,1.68l-.24.24a23,23,0,0,1-10.49,10.45Zm3.25,7.17c-.43.65-.81,1.22-1.1,1.58a21.87,21.87,0,0,1-5.78,4.41l-.35,1.28a4,4,0,0,1,.47-.23A22.46,22.46,0,0,0,44.79,342c.32-.39.71-1,1.16-1.64a25.52,25.52,0,0,1,5.27-6.22c.09-.47.17-.93.25-1.39l-.16.1C48.62,334.56,46.51,337.71,45.11,339.8Zm-2.73,26.08c.59-.2,1.55-.44,2.67-.71l.75-.18c.06-.35.12-.71.19-1.08l-1.18.29c-1.14.28-2.12.52-2.75.73-2,.65-6.25,4.55-6.45,4.74l-1.24,1.25c.27.19.56.38.86.56l1.07-1.09C37.5,369.3,40.92,366.36,42.38,365.88Zm-.42-7c2.17-2.37,3.54-3.92,4.54-5.06.64-.73,1.12-1.27,1.56-1.74l.3-1.72a36.35,36.35,0,0,0-2.61,2.8c-1,1.13-2.36,2.69-4.53,5a32.87,32.87,0,0,1-7.95,6.17l-.33,1.31A34.64,34.64,0,0,0,42,358.88ZM55.4,311.19a22.19,22.19,0,0,0-6.81.68,18.71,18.71,0,0,0-.87,1.68c1.49-1.08,4.17-1.22,7.47-1.23.09-.45.16-.78.21-1a1,1,0,0,1,0-.17Zm-9,5.87c-.76,2.35-1.84,6.05-3.08,10.4C45.75,324.72,46.34,320.25,46.41,317.06Z" style="fill: rgb(108, 152, 255); transform-origin: 44.17px 341.315px;" id="eluooo7w9yboe" class="animable"></path><path d="M32.93,366.11s5.73,4.09,11.85,3.19" style="fill: none; stroke: rgb(38, 50, 56); stroke-linecap: round; stroke-linejoin: round; transform-origin: 38.855px 367.77px;" id="elyvsewwbv61" class="animable"></path><path d="M53.06,307s-3.6,1.8-5.94,7.92S32,368.4,32.18,368.94a12,12,0,0,0,6.84,4,21.63,21.63,0,0,0,5.4,0S54.5,315,55.4,311.35,54.5,305.77,53.06,307Z" style="fill: none; stroke: rgb(38, 50, 56); stroke-linecap: round; stroke-linejoin: round; transform-origin: 43.9099px 339.869px;" id="eljxze17lpw2" class="animable"></path><path d="M64.76,478.36s12.6,6.12,14.39,6.84,1.08,3.06,1.08,3.06H55.58s-1.08-.9-.18-4.32S64.76,478.36,64.76,478.36Z" style="fill: rgb(255, 255, 255); stroke: rgb(38, 50, 56); stroke-linecap: round; stroke-linejoin: round; transform-origin: 67.7054px 483.31px;" id="elixxvehonkq9" class="animable"></path><path d="M55.58,488.26H80.23a3.74,3.74,0,0,0,.12-1.44H55.06A2.16,2.16,0,0,0,55.58,488.26Z" style="fill: rgb(255, 255, 255); stroke: rgb(38, 50, 56); stroke-linecap: round; stroke-linejoin: round; transform-origin: 67.7164px 487.54px;" id="elmwri42xyxj" class="animable"></path><path d="M45.14,397.37s5.4,35.46,5.94,41.4,3.78,40.49,4,43.55,2.7,4,4.5,4,7.56-4,7.92-9.9,3.6-75.95,3.6-75.95S51.8,406,45.14,397.37Z" style="fill: rgb(38, 50, 56); stroke: rgb(38, 50, 56); stroke-linecap: round; stroke-linejoin: round; transform-origin: 58.12px 441.845px;" id="el3l283mz7ar7" class="animable"></path><path d="M76.64,478.36S89.23,484.48,91,485.2s1.08,3.06,1.08,3.06H67.46s-1.08-.9-.18-4.32S76.64,478.36,76.64,478.36Z" style="fill: rgb(255, 255, 255); stroke: rgb(38, 50, 56); stroke-linecap: round; stroke-linejoin: round; transform-origin: 79.5672px 483.31px;" id="el41gcjmdbfil" class="animable"></path><path d="M67.46,488.26H92.11a4,4,0,0,0,.12-1.44H66.94A2.16,2.16,0,0,0,67.46,488.26Z" style="fill: rgb(255, 255, 255); stroke: rgb(38, 50, 56); stroke-linecap: round; stroke-linejoin: round; transform-origin: 79.5946px 487.54px;" id="elm14aufalbnf" class="animable"></path><path d="M63.32,403.49s1.62,51.29,1.62,59.21,1.08,23.94,2.52,23.94,9.36-6.48,9.72-8.82a40.84,40.84,0,0,0,.36-5.22s7.19-51.83,8.63-60.47,1.8-15.3,1.8-15.3S73.76,393.24,63.32,403.49Z" style="fill: rgb(38, 50, 56); stroke: rgb(38, 50, 56); stroke-linecap: round; stroke-linejoin: round; transform-origin: 75.645px 441.43px;" id="eld3uphrudz4k" class="animable"></path><path d="M52.7,306.13a353.3,353.3,0,0,0-11,45.17c-1.88,11.68-3.06,44.81-3.06,44.81s14.22,11.52,21.78,11.34,16-6.3,19.61-7.74,10.08-1.08,10.08-1.08-1.26-29.51-1.44-40.85-3.78-38.87-5.58-43.91-11-7.92-17.63-9.54S54.32,303.43,52.7,306.13Z" style="fill: rgb(255, 255, 255); transform-origin: 64.375px 355.463px;" id="elna0j10cnvke" class="animable"></path><path d="M47,377.12c.22-.05,5.54-1.37,10.28-8,3.44-4.82,4.32-5.54,5.93-6.85.57-.47,1.22-1,2.11-1.8a5.4,5.4,0,0,1,2.37-1.58c.73-.22,1.36-.41,3.89-3.13,2.2-2.35,2.84-3.15,3.46-3.93s1.24-1.54,3.41-3.87a10.8,10.8,0,0,0,1.93-2.34l.06,0c.4-.32,1.41-1.13,3.89-3.19l3-2.46c-.05-.4-.09-.79-.14-1.19l-3.45,2.88c-2.47,2.05-3.47,2.86-3.87,3.17s-.44.35-.45.59a20.62,20.62,0,0,1-1.65,1.9c-2.2,2.35-2.84,3.15-3.46,3.93s-1.24,1.54-3.41,3.87c-2.35,2.52-2.88,2.68-3.45,2.85a6.33,6.33,0,0,0-2.76,1.8c-.86.78-1.5,1.31-2.07,1.77-1.66,1.36-2.58,2.11-6.11,7-4.5,6.3-9.64,7.59-9.73,7.62l-7.28,2.42-.06,1.08Z" style="fill: rgb(108, 152, 255); transform-origin: 63.385px 359.22px;" id="el60cf020rndh" class="animable"></path><path d="M79.55,315.89c-.18.32-.36.64-1.76,1.69l-1.35,1a6.44,6.44,0,0,0-1.78,1.57c-.23.29-.58.73-1.31,1.55l-.42.47A57.39,57.39,0,0,0,68,328.3a11.35,11.35,0,0,1-2.1,2.35,29.3,29.3,0,0,0-4.45,5.13c-2.73,3.63-2.9,4.3-2.17,5,.14.13.3.29-.08,1.35a3.66,3.66,0,0,1-2.62,2.64,21.93,21.93,0,0,0-4.7,2.74,28.56,28.56,0,0,0-6.15,5.63c-1,1.13-2.36,2.69-4.53,5-.11.13-.25.25-.37.37-.05.52-.09,1-.14,1.57.43-.41.85-.83,1.25-1.26,2.17-2.37,3.54-3.92,4.54-5.06a27.89,27.89,0,0,1,6-5.49A20.09,20.09,0,0,1,57,345.71a4.62,4.62,0,0,0,3.15-3.22c.5-1.39.31-1.95-.16-2.41l-.06-.05c0-.22.36-1,2.33-3.65a27.15,27.15,0,0,1,4.31-5,12.76,12.76,0,0,0,2.25-2.53,55.49,55.49,0,0,1,4.85-6l.42-.47c.74-.84,1.1-1.29,1.34-1.59a6.34,6.34,0,0,1,1.6-1.39l1.35-1c1.58-1.18,1.81-1.6,2-2s.42-.75,2.75-2.34l-.06-.16a5.89,5.89,0,0,0-.35-.77C80.08,314.92,79.83,315.37,79.55,315.89Z" style="fill: rgb(108, 152, 255); transform-origin: 61.91px 336.605px;" id="els5ikqnu1r0j" class="animable"></path><path d="M73,338.32a40.15,40.15,0,0,0-2,4.19,20.89,20.89,0,0,1-3.5,6,55.76,55.76,0,0,1-8,7.42c-.88.63-2,1.54-3.16,2.5a45.47,45.47,0,0,1-4.91,3.71,31.1,31.1,0,0,1-6.52,2c-1.14.28-2.12.52-2.75.73a8.18,8.18,0,0,0-1.81,1c0,.43-.07.86-.1,1.29a10.15,10.15,0,0,1,2.23-1.33c.59-.2,1.55-.44,2.67-.71A31.25,31.25,0,0,0,51.82,363a44.77,44.77,0,0,0,5-3.81c1.16-1,2.26-1.85,3.11-2.46a56.22,56.22,0,0,0,8.19-7.56,21.76,21.76,0,0,0,3.68-6.29,39,39,0,0,1,2-4.08c2.22-3.8,5.38-6.79,11.88-11.18-.06-.37-.11-.74-.16-1.1C78.73,331.13,75.3,334.35,73,338.32Z" style="fill: rgb(108, 152, 255); transform-origin: 62.965px 346.84px;" id="eld0fz33f8dhm" class="animable"></path><path d="M53.25,321.7c.47-.47,3.35-3.29,6.44-5.82,2.19-1.8,2.42-2.13,3-3,.37-.53.87-1.26,2-2.66,2.91-3.49,4.16-4.21,4.14-4.21l1.25-.38-1.71-.5c-.33.2-1.66,1.1-4.45,4.45a32,32,0,0,0-2.08,2.74,10.89,10.89,0,0,1-2.84,2.81c-3.41,2.79-6.56,5.93-6.59,6l-.11.17a20.76,20.76,0,0,1-5.91,7.31l-.39,1.56A21.91,21.91,0,0,0,53.25,321.7Z" style="fill: rgb(108, 152, 255); transform-origin: 58.04px 317.65px;" id="eliasr02z0glj" class="animable"></path><path d="M89.89,392.76c0-.38,0-.77,0-1.17a31.58,31.58,0,0,1-3.48,2.09,64.45,64.45,0,0,0-7,4.38,37.74,37.74,0,0,0-7.11,5.7l-.06.06c1.23-.62,2.39-1.25,3.46-1.83,1-.79,2.3-1.77,4.27-3.11a61.62,61.62,0,0,1,6.9-4.31A33.84,33.84,0,0,0,89.89,392.76Z" style="fill: rgb(108, 152, 255); transform-origin: 81.065px 397.705px;" id="el6njglfts1y7" class="animable"></path><path d="M45.28,397.2a38.78,38.78,0,0,1,7.5-6.11A15.49,15.49,0,0,0,55.53,389a1.55,1.55,0,0,0,.33-.52c.69-.15,2.58-.59,7.4-2,3.93-1.16,6.56-1.86,8.48-2.36,4.79-1.27,5-1.32,8.84-4.27C83,378,83.58,378,84.07,378c.76,0,1.44-.12,4-2.55l1.08-1c0-.45,0-.89-.05-1.34-.52.51-1.08,1-1.71,1.63C85,377,84.54,377,84.08,377c-.77,0-1.61.14-4.11,2.05-3.7,2.84-3.79,2.86-8.49,4.1-1.92.51-4.56,1.21-8.5,2.37-5,1.48-6.82,1.88-7.42,2-.35.08-.56.12-.67.39l-.08.28,0,.06a12.23,12.23,0,0,1-2.61,2,39.94,39.94,0,0,0-7.68,6.25,26,26,0,0,1-2.41,2.25l.85.6C43.86,398.63,44.56,397.93,45.28,397.2Z" style="fill: rgb(108, 152, 255); transform-origin: 65.63px 386.23px;" id="el3lvxh826iv6" class="animable"></path><path d="M75.78,391.12a48.69,48.69,0,0,0-6.85,2.95,39.63,39.63,0,0,1-6.23,2.66c-2.86.64-11,5.78-11.39,6l-.19.13,0,.21a2.86,2.86,0,0,1-.55,1.05l.89.47a4.19,4.19,0,0,0,.59-1.11c1.18-.74,8.42-5.21,10.9-5.76A39.43,39.43,0,0,0,69.37,395,47.58,47.58,0,0,1,76,392.09a140.33,140.33,0,0,0,13.6-5.64c0-.36,0-.72,0-1.09C83.94,388,77.71,390.59,75.78,391.12Z" style="fill: rgb(108, 152, 255); transform-origin: 70.085px 394.975px;" id="elluq1b7hmeoa" class="animable"></path><path d="M77.2,310.08a49,49,0,0,1-5,2.76c-3,1.51-5.67,2.82-7.59,5.81a26.29,26.29,0,0,0-2.55,5.6c-.81,2.25-1.44,4-2.89,4.84a22.89,22.89,0,0,1-3.08,1.4,24.7,24.7,0,0,0-4.74,2.36c-2.69,1.71-4.8,4.86-6.2,6.95-.43.65-.81,1.22-1.1,1.58a8.37,8.37,0,0,1-.6.65c-.11.55-.21,1.09-.32,1.64a13.54,13.54,0,0,0,1.7-1.67c.32-.39.71-1,1.16-1.64,1.35-2,3.39-5.07,5.89-6.67a23.79,23.79,0,0,1,4.58-2.27,24.27,24.27,0,0,0,3.2-1.46c1.77-1,2.5-3,3.34-5.38a25.38,25.38,0,0,1,2.45-5.39c1.77-2.76,4.17-3.95,7.2-5.45a53,53,0,0,0,5.13-2.82,13.81,13.81,0,0,0,1.68-1.26c-.28-.19-.57-.38-.88-.57A13,13,0,0,1,77.2,310.08Z" style="fill: rgb(108, 152, 255); transform-origin: 61.295px 326.38px;" id="elbpw825icqe6" class="animable"></path><path d="M48.94,384.59a51,51,0,0,0,5-2.32A55.82,55.82,0,0,1,61.4,379c3.57-1.19,6.15-5.93,7.86-9.06a14.49,14.49,0,0,1,1.39-2.29c1-1,7.91-5,10.55-6.51.06,0,3.69-2.74,7.42-5.68,0-.39,0-.8-.06-1.22-3.9,3.09-7.88,6-7.91,6.07-.38.21-9.43,5.35-10.71,6.63a13.63,13.63,0,0,0-1.55,2.52c-1.54,2.81-4.11,7.52-7.3,8.59a56.92,56.92,0,0,0-7.56,3.35,52,52,0,0,1-4.93,2.27,30.25,30.25,0,0,0-5.38,2.73,15.22,15.22,0,0,1-1.81,1,6.58,6.58,0,0,0-2.48,2.1c0,.61,0,1.17-.07,1.71,1.16-1.52,2-2.54,2.92-2.88a15.9,15.9,0,0,0,2-1.09A28.13,28.13,0,0,1,48.94,384.59Z" style="fill: rgb(108, 152, 255); transform-origin: 63.74px 372.725px;" id="el6wqxe9z9s9l" class="animable"></path><path d="M62.29,303.72c-1,2.24-3.72,7.47-6.89,7.47a41.1,41.1,0,0,0-4.29.15c-.12.38-.23.78-.35,1.19a36.05,36.05,0,0,1,4.64-.21c4,0,7.05-6.2,8-8.42Z" style="fill: rgb(108, 152, 255); transform-origin: 57.08px 308.125px;" id="elxki7tfjsjwl" class="animable"></path><path d="M52.7,306.13a353.3,353.3,0,0,0-11,45.17c-1.88,11.68-3.06,44.81-3.06,44.81s14.22,11.52,21.78,11.34,16-6.3,19.61-7.74,10.08-1.08,10.08-1.08-1.26-29.51-1.44-40.85-3.78-38.87-5.58-43.91-11-7.92-17.63-9.54S54.32,303.43,52.7,306.13Z" style="fill: none; stroke: rgb(38, 50, 56); stroke-miterlimit: 10; transform-origin: 64.375px 355.463px;" id="elf1yyk04o6gb" class="animable"></path><polyline points="75.16 332.83 74.07 380.45 85.77 382.36 88.77 389.16 88.77 377.46 75.16 332.83" style="fill: rgb(38, 50, 56); transform-origin: 81.42px 360.995px;" id="elgvq6qavwtx" class="animable"></polyline><path d="M80.59,304.87a64.94,64.94,0,0,0-11.51-6.3c-5.58-2.16-12.24-3.6-13.86-1.26s-4.5,7.92-3.6,9.36,20.16,5.58,24.3,6.12S82.93,309.91,80.59,304.87Z" style="fill: rgb(108, 152, 255); stroke: rgb(38, 50, 56); stroke-linecap: round; stroke-linejoin: round; transform-origin: 66.4397px 304.478px;" id="el6anecm8gdxx" class="animable"></path><path d="M80.59,304.87s-9.17-2.34-13.49,0-4.32,9.36-6.12,17.28-7.2,38.15-6.3,38.51,11.16,4.68,12.42,1.44,4.44-41.08,5.22-44.45C73.4,313,77.72,313,79.69,313s4.68,5,5,2.52S84.73,306.85,80.59,304.87Z" style="fill: rgb(108, 152, 255); stroke: rgb(38, 50, 56); stroke-linecap: round; stroke-linejoin: round; transform-origin: 69.6825px 333.564px;" id="elrsiuenor4y" class="animable"></path><path d="M91.39,377.22s1.26,8.64,1.8,11,2,9.17.54,13.49-4,6.3-4.14,5.58a3.34,3.34,0,0,1,.36-1.8s.72-4-.54-6.84-1.44-5.57-.9-6.83,1.8-3.78,1.8-3.78l-5.94-10.26Z" style="fill: rgb(255, 255, 255); stroke: rgb(38, 50, 56); stroke-linecap: round; stroke-linejoin: round; transform-origin: 89.3653px 392.327px;" id="elvckyq2mqj4" class="animable"></path><path d="M74.48,323.77l2,54.71s8.45.54,12.41.36,9.54-2.7,9.54-2.7-11.7-55.43-13.5-59.39-7.19-3.78-9.71-.54" style="fill: rgb(255, 255, 255); transform-origin: 86.455px 346.327px;" id="elw9gbxf3d7c" class="animable"></path><path d="M96.47,367c-2.26,1.21-3.84,2.72-6.63,5.38-.71.69-1.51,1.44-2.42,2.3C85,377,84.54,377,84.08,377c-.72,0-1.52.14-3.64,1.7l1.64.07c1.21-.78,1.63-.78,2-.77.76,0,1.44-.12,4-2.55.92-.86,1.71-1.62,2.43-2.3,2.69-2.57,4.16-4,6.16-5.08C96.62,367.72,96.55,367.38,96.47,367Z" style="fill: rgb(108, 152, 255); transform-origin: 88.555px 372.885px;" id="elhnigeghqf3" class="animable"></path><path d="M74.9,335.53l.06,1.58c2.26-3.18,5.55-6,11.52-10l1-.67c-.08-.35-.17-.7-.25-1l-1.31.88C80.54,329.89,77.22,332.64,74.9,335.53Z" style="fill: rgb(108, 152, 255); transform-origin: 81.19px 331.275px;" id="elya9g8ng0hmc" class="animable"></path><path d="M79.55,315.89c-.18.32-.36.64-1.76,1.69l-1.35,1a7.9,7.9,0,0,0-1.6,1.34l-.17,1.78c.37-.43.61-.72.77-.93a6.34,6.34,0,0,1,1.6-1.39l1.35-1c1.58-1.18,1.81-1.6,2-2s.39-.7,2.25-2a5.08,5.08,0,0,0-1.12-.43C80,315.08,79.78,315.47,79.55,315.89Z" style="fill: rgb(108, 152, 255); transform-origin: 78.655px 317.825px;" id="el1qyqxtz52lt" class="animable"></path><path d="M83.7,341.62c-2.47,2.05-3.47,2.86-3.87,3.17s-.44.35-.45.59a20.62,20.62,0,0,1-1.65,1.9c-1.09,1.17-1.8,2-2.31,2.54l0,1.49c.54-.66,1.29-1.53,3-3.35a10.8,10.8,0,0,0,1.93-2.34l.06,0c.4-.32,1.41-1.13,3.89-3.19,2.76-2.3,4.5-3.75,5.71-4.78-.08-.37-.17-.74-.25-1.1C88.59,337.55,86.78,339.05,83.7,341.62Z" style="fill: rgb(108, 152, 255); transform-origin: 82.715px 343.93px;" id="eloopc3tnvmn" class="animable"></path><path d="M93.17,351.75l-.24-1.11c-4.46,3.84-12.24,9.61-12.28,9.65s-2.38,1.35-4.75,2.76l0,1.14c2-1.2,4.07-2.39,5.26-3.07C81.28,361.06,88.62,355.61,93.17,351.75Z" style="fill: rgb(108, 152, 255); transform-origin: 84.535px 357.415px;" id="eli4nun506hi" class="animable"></path><path d="M76.46,372.54s11.87,2.7,20.69-2" style="fill: none; stroke: rgb(38, 50, 56); stroke-linecap: round; stroke-linejoin: round; transform-origin: 86.805px 371.926px;" id="elfre0fysy8c4" class="animable"></path><path d="M74.48,323.77l2,54.71s8.45.54,12.41.36,9.54-2.7,9.54-2.7-11.7-55.43-13.5-59.39-7.19-3.78-9.71-.54" style="fill: none; stroke: rgb(38, 50, 56); stroke-miterlimit: 10; transform-origin: 86.455px 346.327px;" id="eloso3w2wippk" class="animable"></path></g><g id="freepik--Floor--inject-54" class="animable" style="transform-origin: 254.66px 488.26px;"><line x1="20.9" y1="488.26" x2="488.42" y2="488.26" style="fill: none; stroke: rgb(38, 50, 56); stroke-linecap: round; stroke-linejoin: round; transform-origin: 254.66px 488.26px;" id="eluc3zsdo8bk8" class="animable"></line></g><defs>     <filter id="active" height="200%">         <feMorphology in="SourceAlpha" result="DILATED" operator="dilate" radius="2"></feMorphology>                <feFlood flood-color="#32DFEC" flood-opacity="1" result="PINK"></feFlood>        <feComposite in="PINK" in2="DILATED" operator="in" result="OUTLINE"></feComposite>        <feMerge>            <feMergeNode in="OUTLINE"></feMergeNode>            <feMergeNode in="SourceGraphic"></feMergeNode>        </feMerge>    </filter>    <filter id="hover" height="200%">        <feMorphology in="SourceAlpha" result="DILATED" operator="dilate" radius="2"></feMorphology>                <feFlood flood-color="#ff0000" flood-opacity="0.5" result="PINK"></feFlood>        <feComposite in="PINK" in2="DILATED" operator="in" result="OUTLINE"></feComposite>        <feMerge>            <feMergeNode in="OUTLINE"></feMergeNode>            <feMergeNode in="SourceGraphic"></feMergeNode>        </feMerge>            <feColorMatrix type="matrix" values="0   0   0   0   0                0   1   0   0   0                0   0   0   0   0                0   0   0   1   0 "></feColorMatrix>    </filter></defs></svg>